<svg xmlns="http://www.w3.org/2000/svg" xmlns:xlink="http://www.w3.org/1999/xlink" width="313" height="314" viewBox="0 0 313 314">
    <defs>
        <filter id="05tuho046a" width="121%" height="123.5%" x="-10.5%" y="-11.8%" filterUnits="objectBoundingBox">
            <feOffset in="SourceAlpha" result="shadowOffsetOuter1"/>
            <feGaussianBlur in="shadowOffsetOuter1" result="shadowBlurOuter1" stdDeviation="9"/>
            <feColorMatrix in="shadowBlurOuter1" values="0 0 0 0 1 0 0 0 0 1 0 0 0 0 1 0 0 0 1 0"/>
        </filter>
        <path id="ti1e8zw1gb" d="M149.973 229.639C220.94 229.639 279 177.088 279 115.77 279 54.455 220.6 0 149.63 0 78.663 0 22 53.295 22 115.771c0 62.477 57.004 113.868 127.973 113.868z"/>
    </defs>
    <g fill="none" fill-rule="evenodd" transform="translate(0 18)">
        <use fill="#000" filter="url(#05tuho046a)" xlink:href="#ti1e8zw1gb"/>
        <use fill="#F7F9FC" xlink:href="#ti1e8zw1gb"/>
        <path fill="#FFF" d="M149.713 200.271c70.416 0 128.498-38.509 128.498-90.115C278.21 58.55 219.79 0 149.374 0 78.958 0 23 56.254 23 108.836s56.297 91.435 126.713 91.435z"/>
        <circle cx="148" cy="169" r="16" fill="#E6EBF2"/>
        <circle cx="196.5" cy="190.5" r="15.5" fill="#FFF"/>
        <circle cx="196.5" cy="188.5" r="12.5" fill="#F7F9FC"/>
        <circle cx="80" cy="71" r="15" fill="#E6EBF2"/>
        <circle cx="81.5" cy="71.5" r="11.5" fill="#F7F9FC"/>
        <circle cx="111" cy="64" r="10" fill="#E6EBF2"/>
        <circle cx="112" cy="65" r="7" fill="#F7F9FC"/>
        <circle cx="77" cy="179" r="11" fill="#E6EBF2"/>
        <circle cx="76" cy="179" r="7" fill="#F7F9FC"/>
        <ellipse cx="182.5" cy="68.5" fill="#E6EBF2" rx="25.5" ry="23.5"/>
        <circle cx="97.5" cy="51.5" r="3.5" fill="#E6EBF2"/>
        <circle cx="86" cy="94" r="2" fill="#D9DDE3"/>
        <circle cx="169" cy="106" r="2" fill="#E6EBF2"/>
        <circle cx="181" cy="37" r="2" fill="#F7F9FC"/>
        <circle cx="67" cy="160" r="2" fill="#D9DDE3"/>
        <ellipse cx="181.5" cy="71" fill="#F7F9FC" rx="20.5" ry="19"/>
        <circle cx="149" cy="168" r="13" fill="#F7F9FC"/>
        <circle cx="134" cy="214" r="12" fill="#E6EBF2"/>
        <circle cx="135" cy="214" r="10" fill="#F9F9F9"/>
        <circle cx="103.5" cy="85.5" r="4.5" fill="#D9DDE3"/>
        <circle cx="186" cy="114" r="5" fill="#F7F9FC"/>
        <circle cx="222.5" cy="94.5" r="7.5" fill="#E6EBF2"/>
        <circle cx="222" cy="95" r="6" fill="#F7F9FC"/>
        <circle cx="164.5" cy="207.5" r="4.5" fill="#E6EBF2"/>
        <circle cx="113" cy="197" r="3" fill="#E6EBF2"/>
        <circle cx="96" cy="204" r="3" fill="#FFF"/>
        <circle cx="220" cy="196" r="3" fill="#FFF"/>
        <circle cx="238" cy="154" r="3" fill="#E6EBF2"/>
        <circle cx="232.5" cy="179.5" r="6.5" fill="#FFF"/>
        <path fill="#EEE" d="M0 182c.148 1.265.34 2.264.578 2.997-.023.05 6.055.253 6.142.087-3.417-.088-5.657-1.116-6.72-3.084zM20 166c.323.01 1.01.012 2.062.004.518 1.891 1.295 3.886 2.33 5.982-2.06-1.936-3.208-4.167-4.392-5.986z"/>
        <path fill="#FFF" d="M222 34.413c1.124-.466 1.362-1.603.714-3.413 2.012 6.801 4.725 11.531 8.139 14.19-7.404-4.32-7.483-8.726-8.853-10.777z"/>
        <path fill="#EEE" d="M308.908 42c-1.791.651-2.76 1.812-2.908 3.483.78-1.546 2.949-2.707 6.504-3.483h-3.596z"/>
        <g fill="#0F59D1">
            <path d="M35.519 5c2.984 0 5.403 2.42 5.403 5.404v34.564c0 2.507 2.032 4.539 4.54 4.539h.132c2.434 0 4.406 1.972 4.406 4.406 0 2.433-1.972 4.405-4.406 4.405h-.133c-2.507 0-4.539 2.032-4.539 4.539v6.74c0 2.984-2.419 5.403-5.403 5.403-2.985 0-5.404-2.42-5.404-5.404v-4.278c0-3.866-3.134-7-7-7H5.534c-3.053 0-5.528-2.473-5.53-5.526L0 49.51c-.001-1.458.453-2.88 1.3-4.069L27.123 9.197C29.001 6.564 32.034 5 35.268 5h.25zm-6.357 15.578c-.33 0-.64.163-.826.436L11.74 45.313c-.778 1.14-.485 2.696.655 3.474.415.284.907.436 1.41.436h10.857c3.037 0 5.5-2.463 5.5-5.5V21.578c0-.553-.448-1-1-1zM154.519 2c2.984 0 5.404 2.42 5.404 5.404v34.564c0 2.507 2.032 4.539 4.538 4.539h.133c2.434 0 4.406 1.972 4.406 4.406 0 2.433-1.972 4.405-4.406 4.405h-.133c-2.506 0-4.538 2.032-4.538 4.539v6.74c0 2.984-2.42 5.403-5.404 5.403-2.985 0-5.404-2.42-5.404-5.404v-4.278c0-3.866-3.134-7-7-7h-17.58c-3.053 0-5.528-2.473-5.531-5.526L119 46.51c-.002-1.458.453-2.88 1.299-4.069l25.825-36.243C148 3.564 151.035 2 154.269 2h.25zm-6.357 15.578c-.33 0-.64.163-.826.436l-16.595 24.299c-.779 1.14-.486 2.696.655 3.474.415.284.906.436 1.41.436h10.856c3.037 0 5.5-2.463 5.5-5.5V18.578c0-.553-.448-1-1-1z" transform="translate(72 216)"/>
            <path d="M82 0c22.091 0 40 17.909 40 40s-17.909 40-40 40-40-17.909-40-40S59.909 0 82 0zm.252 6.54c-13.617 0-24.655 14.756-24.655 32.957 0 18.2 11.038 32.956 24.655 32.956 13.616 0 24.654-14.755 24.654-32.956S95.868 6.54 82.252 6.54z" transform="translate(72 216)"/>
        </g>
    </g>
</svg>
