<svg xmlns="http://www.w3.org/2000/svg" xmlns:xlink="http://www.w3.org/1999/xlink" width="317" height="326" viewBox="0 0 317 326">
    <defs>
        <filter id="s8t51rheta" width="135%" height="139.2%" x="-17.5%" y="-19.6%" filterUnits="objectBoundingBox">
            <feOffset in="SourceAlpha" result="shadowOffsetOuter1"/>
            <feGaussianBlur in="shadowOffsetOuter1" result="shadowBlurOuter1" stdDeviation="15"/>
            <feColorMatrix in="shadowBlurOuter1" values="0 0 0 0 1 0 0 0 0 1 0 0 0 0 1 0 0 0 0.4 0"/>
        </filter>
        <path id="7ltc9msvsb" d="M127.973 229.639C198.94 229.639 257 177.088 257 115.77 257 54.455 198.6 0 127.63 0 56.663 0 0 53.295 0 115.771 0 178.248 57.004 229.64 127.973 229.64z"/>
    </defs>
    <g fill="none" fill-rule="evenodd" transform="translate(30 30)">
        <use fill="#000" filter="url(#s8t51rheta)" xlink:href="#7ltc9msvsb"/>
        <use fill="#CDD1D6" xlink:href="#7ltc9msvsb"/>
        <path fill="#F7F9FC" d="M127.713 200.271c70.416 0 128.498-38.509 128.498-90.115C256.21 58.55 197.79 0 127.374 0 56.958 0 1 56.254 1 108.836s56.297 91.435 126.713 91.435z"/>
        <circle cx="126" cy="169" r="16" fill="#CDD1D6"/>
        <circle cx="174.5" cy="190.5" r="15.5" fill="#CDD1D6"/>
        <circle cx="174.5" cy="188.5" r="12.5" fill="#F7F9FC"/>
        <circle cx="58" cy="71" r="15" fill="#CDD1D6"/>
        <circle cx="59.5" cy="71.5" r="11.5" fill="#F7F9FC"/>
        <circle cx="89" cy="64" r="10" fill="#CDD1D6"/>
        <circle cx="90" cy="65" r="7" fill="#F7F9FC"/>
        <circle cx="55" cy="179" r="11" fill="#CDD1D6"/>
        <circle cx="54" cy="179" r="7" fill="#F7F9FC"/>
        <ellipse cx="160.5" cy="68.5" fill="#CDD1D6" rx="25.5" ry="23.5"/>
        <circle cx="75.5" cy="51.5" r="3.5" fill="#E6EBF2"/>
        <circle cx="64" cy="94" r="2" fill="#CDD1D6"/>
        <circle cx="147" cy="106" r="2" fill="#CDD1D6"/>
        <circle cx="159" cy="37" r="2" fill="#F7F9FC"/>
        <circle cx="45" cy="160" r="2" fill="#D9DDE3"/>
        <ellipse cx="159.5" cy="71" fill="#F7F9FC" rx="20.5" ry="19"/>
        <circle cx="127" cy="168" r="13" fill="#F7F9FC"/>
        <circle cx="112" cy="214" r="12" fill="#E6EBF2"/>
        <circle cx="113" cy="214" r="10" fill="#F9F9F9"/>
        <circle cx="81.5" cy="85.5" r="4.5" fill="#D9DDE3"/>
        <circle cx="164" cy="114" r="5" fill="#F7F9FC"/>
        <circle cx="200.5" cy="94.5" r="7.5" fill="#CDD1D6"/>
        <circle cx="200" cy="95" r="6" fill="#F7F9FC"/>
        <circle cx="142.5" cy="207.5" r="4.5" fill="#E6EBF2"/>
        <circle cx="91" cy="197" r="3" fill="#E6EBF2"/>
        <circle cx="74" cy="204" r="3" fill="#FFF"/>
        <circle cx="198" cy="196" r="3" fill="#FFF"/>
        <circle cx="216" cy="154" r="3" fill="#E6EBF2"/>
        <circle cx="210.5" cy="179.5" r="6.5" fill="#FFF"/>
        <path fill="#FFF" d="M200 34.413c1.124-.466 1.362-1.603.714-3.413 2.012 6.801 4.725 11.531 8.139 14.19-7.404-4.32-7.483-8.726-8.853-10.777z"/>
        <g fill="#0A5DE3">
            <path d="M35.519 5c2.984 0 5.403 2.42 5.403 5.404v34.564c0 2.507 2.032 4.539 4.54 4.539h.132c2.434 0 4.406 1.972 4.406 4.406 0 2.433-1.972 4.405-4.406 4.405h-.133c-2.507 0-4.539 2.032-4.539 4.539v6.74c0 2.984-2.419 5.403-5.403 5.403-2.985 0-5.404-2.42-5.404-5.404v-4.278c0-3.866-3.134-7-7-7H5.534c-3.053 0-5.528-2.473-5.53-5.526L0 49.51c-.001-1.458.453-2.88 1.3-4.069L27.123 9.197C29.001 6.564 32.034 5 35.268 5h.25zm-6.357 15.578c-.33 0-.64.163-.826.436L11.74 45.313c-.778 1.14-.485 2.696.655 3.474.415.284.907.436 1.41.436h10.857c3.037 0 5.5-2.463 5.5-5.5V21.578c0-.553-.448-1-1-1zM154.519 2c2.984 0 5.404 2.42 5.404 5.404v34.564c0 2.507 2.032 4.539 4.538 4.539h.133c2.434 0 4.406 1.972 4.406 4.406 0 2.433-1.972 4.405-4.406 4.405h-.133c-2.506 0-4.538 2.032-4.538 4.539v6.74c0 2.984-2.42 5.403-5.404 5.403-2.985 0-5.404-2.42-5.404-5.404v-4.278c0-3.866-3.134-7-7-7h-17.58c-3.053 0-5.528-2.473-5.531-5.526L119 46.51c-.002-1.458.453-2.88 1.299-4.069l25.825-36.243C148 3.564 151.035 2 154.269 2h.25zm-6.357 15.578c-.33 0-.64.163-.826.436l-16.595 24.299c-.779 1.14-.486 2.696.655 3.474.415.284.906.436 1.41.436h10.856c3.037 0 5.5-2.463 5.5-5.5V18.578c0-.553-.448-1-1-1z" transform="translate(50 216)"/>
            <path d="M82 0c22.091 0 40 17.909 40 40s-17.909 40-40 40-40-17.909-40-40S59.909 0 82 0zm.252 6.54c-13.617 0-24.655 14.756-24.655 32.957 0 18.2 11.038 32.956 24.655 32.956 13.616 0 24.654-14.755 24.654-32.956S95.868 6.54 82.252 6.54z" transform="translate(50 216)"/>
        </g>
    </g>
</svg>
