<svg width="1920" height="1189" viewBox="0 0 1920 1189" fill="none" xmlns="http://www.w3.org/2000/svg">
<path d="M1336 905.29L1418.92 953.727L1501.52 907.152L1417.85 860.576L1336 905.29Z" stroke="#3A86FF" stroke-opacity="0.15" stroke-miterlimit="10" stroke-linecap="round" stroke-linejoin="round"/>
<path d="M1418.92 953.729V1045.54L1336 999.634V905.292L1418.92 953.729Z" stroke="#3A86FF" stroke-opacity="0.15" stroke-miterlimit="10" stroke-linecap="round" stroke-linejoin="round"/>
<path d="M1418.92 1045.53L1501.52 999.029V907.151L1418.92 953.727V1045.53Z" stroke="#3A86FF" stroke-opacity="0.15" stroke-miterlimit="10" stroke-linecap="round" stroke-linejoin="round"/>
<path d="M926.884 845.389L1009.8 893.841L1092.4 847.265L1009.64 799.485L926.884 845.389Z" stroke="#3A86FF" stroke-opacity="0.15" stroke-miterlimit="10" stroke-linecap="round" stroke-linejoin="round"/>
<path d="M1009.8 893.84V985.648L926.884 939.744V845.388L1009.8 893.84Z" stroke="#3A86FF" stroke-opacity="0.15" stroke-miterlimit="10" stroke-linecap="round" stroke-linejoin="round"/>
<path d="M1009.8 985.648L1092.56 939.744L1092.4 847.264L1009.8 893.84V985.648Z" stroke="#3A86FF" stroke-opacity="0.15" stroke-miterlimit="10" stroke-linecap="round" stroke-linejoin="round"/>
<path d="M519 913.337L601.919 961.774L684.52 915.198L601.76 869.294L519 913.337Z" stroke="#3A86FF" stroke-opacity="0.15" stroke-miterlimit="10" stroke-linecap="round" stroke-linejoin="round"/>
<path d="M601.919 961.776V1053.6L519 1007.68V913.338L601.919 961.776Z" stroke="#3A86FF" stroke-opacity="0.15" stroke-miterlimit="10" stroke-linecap="round" stroke-linejoin="round"/>
<path d="M601.92 1053.6L684.521 1007.09V915.198L601.92 961.773V1053.6Z" stroke="#3A86FF" stroke-opacity="0.15" stroke-miterlimit="10" stroke-linecap="round" stroke-linejoin="round"/>
<path d="M104 1028.37L186.904 1076.81L269.519 1030.23L186.76 982.464L104 1028.37Z" stroke="#3A86FF" stroke-opacity="0.15" stroke-miterlimit="10" stroke-linecap="round" stroke-linejoin="round"/>
<path d="M186.904 1076.8V1168.63L104 1122.71V1028.37L186.904 1076.8Z" stroke="#3A86FF" stroke-opacity="0.15" stroke-miterlimit="10" stroke-linecap="round" stroke-linejoin="round"/>
<path d="M186.903 1168.63L269.518 1122.11V1030.23L186.903 1076.81V1168.63Z" stroke="#3A86FF" stroke-opacity="0.15" stroke-miterlimit="10" stroke-linecap="round" stroke-linejoin="round"/>
<path d="M186.758 753.247L269.677 801.684L352.278 755.108L269.518 707.343L186.758 753.247Z" stroke="#3A86FF" stroke-opacity="0.15" stroke-miterlimit="10" stroke-linecap="round" stroke-linejoin="round"/>
<path d="M269.678 801.683V893.505L186.759 847.601V753.245L269.678 801.683Z" stroke="#3A86FF" stroke-opacity="0.15" stroke-miterlimit="10" stroke-linecap="round" stroke-linejoin="round"/>
<path d="M269.679 893.508L352.279 847.002V755.11L269.679 801.686V893.508Z" stroke="#3A86FF" stroke-opacity="0.15" stroke-miterlimit="10" stroke-linecap="round" stroke-linejoin="round"/>
<path d="M106.732 479.909L189.636 528.347L272.251 481.771L189.492 434.005L106.732 479.909Z" stroke="#3A86FF" stroke-opacity="0.15" stroke-miterlimit="10" stroke-linecap="round" stroke-linejoin="round"/>
<path d="M189.636 528.345V620.153L106.732 574.249V479.907L189.636 528.345Z" stroke="#3A86FF" stroke-opacity="0.15" stroke-miterlimit="10" stroke-linecap="round" stroke-linejoin="round"/>
<path d="M189.635 620.156L272.25 573.65V481.772L189.635 528.348V620.156Z" stroke="#3A86FF" stroke-opacity="0.15" stroke-miterlimit="10" stroke-linecap="round" stroke-linejoin="round"/>
<path d="M106.732 385.663L189.636 434.115L272.251 387.525L189.492 339.759L106.732 385.663Z" stroke="#3A86FF" stroke-opacity="0.15" stroke-miterlimit="10" stroke-linecap="round" stroke-linejoin="round"/>
<path d="M189.636 434.114V528.344L106.732 480.018V385.662L189.636 434.114Z" stroke="#3A86FF" stroke-opacity="0.15" stroke-miterlimit="10" stroke-linecap="round" stroke-linejoin="round"/>
<path d="M189.635 528.347L272.25 481.771V387.527L189.635 434.117V528.347Z" stroke="#3A86FF" stroke-opacity="0.15" stroke-miterlimit="10" stroke-linecap="round" stroke-linejoin="round"/>
<path d="M260 212.845L342.904 261.297L425.519 214.721L342.76 166.941L260 212.845Z" stroke="#3A86FF" stroke-opacity="0.15" stroke-miterlimit="10" stroke-linecap="round" stroke-linejoin="round"/>
<path d="M342.905 261.296V353.104L260.001 307.2V212.844L342.905 261.296Z" stroke="#3A86FF" stroke-opacity="0.15" stroke-miterlimit="10" stroke-linecap="round" stroke-linejoin="round"/>
<path d="M342.904 353.104L425.519 308.459V214.72L342.904 261.296V353.104Z" stroke="#3A86FF" stroke-opacity="0.15" stroke-miterlimit="10" stroke-linecap="round" stroke-linejoin="round"/>
<path d="M-23 51.0758L59.9186 99.5137L142.519 52.9377L59.7596 5.15784L-23 51.0758Z" stroke="#3A86FF" stroke-opacity="0.15" stroke-miterlimit="10" stroke-linecap="round" stroke-linejoin="round"/>
<path d="M59.9186 99.5153V191.323L-23 145.419V51.0774L59.9186 99.5153Z" stroke="#3A86FF" stroke-opacity="0.15" stroke-miterlimit="10" stroke-linecap="round" stroke-linejoin="round"/>
<path d="M59.9199 191.32L142.521 144.814V52.9365L59.9199 99.5125V191.32Z" stroke="#3A86FF" stroke-opacity="0.15" stroke-miterlimit="10" stroke-linecap="round" stroke-linejoin="round"/>
<path d="M425.518 214.117L508.422 262.555L591.037 215.979L508.277 168.213L425.518 214.117Z" stroke="#3A86FF" stroke-opacity="0.15" stroke-miterlimit="10" stroke-linecap="round" stroke-linejoin="round"/>
<path d="M508.422 262.553V354.375L425.518 308.457V214.115L508.422 262.553Z" stroke="#3A86FF" stroke-opacity="0.15" stroke-miterlimit="10" stroke-linecap="round" stroke-linejoin="round"/>
<path d="M508.421 354.378L591.036 307.858V215.98L508.421 262.556V354.378Z" stroke="#3A86FF" stroke-opacity="0.15" stroke-miterlimit="10" stroke-linecap="round" stroke-linejoin="round"/>
<path d="M684.792 345.123L767.551 392.832L850.311 345.053L767.551 297.287L684.792 345.123Z" stroke="#3A86FF" stroke-opacity="0.15" stroke-miterlimit="10" stroke-linecap="round" stroke-linejoin="round"/>
<path d="M767.552 392.834L767.696 483.452L684.937 439.41L684.792 345.124L767.552 392.834Z" stroke="#3A86FF" stroke-opacity="0.15" stroke-miterlimit="10" stroke-linecap="round" stroke-linejoin="round"/>
<path d="M767.695 483.451L850.31 436.945V345.053L767.551 392.833L767.695 483.451Z" stroke="#3A86FF" stroke-opacity="0.15" stroke-miterlimit="10" stroke-linecap="round" stroke-linejoin="round"/>
<path d="M927.592 388.104L1010.51 436.542L1093.11 389.966L1010.35 342.2L927.592 388.104Z" stroke="#3A86FF" stroke-opacity="0.15" stroke-miterlimit="10" stroke-linecap="round" stroke-linejoin="round"/>
<path d="M1010.51 436.541L1012.98 528.363L927.593 482.445V388.103L1010.51 436.541Z" stroke="#3A86FF" stroke-opacity="0.15" stroke-miterlimit="10" stroke-linecap="round" stroke-linejoin="round"/>
<path d="M1012.98 528.366L1095.76 481.86L1093.11 389.968L1010.51 436.544L1012.98 528.366Z" stroke="#3A86FF" stroke-opacity="0.15" stroke-miterlimit="10" stroke-linecap="round" stroke-linejoin="round"/>
<path d="M884.704 22.1985L967.622 70.6364L1050.22 24.0604L967.463 -23.7054L884.704 22.1985Z" stroke="#3A86FF" stroke-opacity="0.15" stroke-miterlimit="10" stroke-linecap="round" stroke-linejoin="round"/>
<path d="M967.622 70.6351V162.443L884.704 116.539V22.1973L967.622 70.6351Z" stroke="#3A86FF" stroke-opacity="0.15" stroke-miterlimit="10" stroke-linecap="round" stroke-linejoin="round"/>
<path d="M967.624 162.446L1050.22 115.94V24.062L967.624 70.6379V162.446Z" stroke="#3A86FF" stroke-opacity="0.15" stroke-miterlimit="10" stroke-linecap="round" stroke-linejoin="round"/>
<path d="M636.584 68.7098L719.489 117.148L802.104 68.7098L719.344 22.8058L636.584 68.7098Z" stroke="#3A86FF" stroke-opacity="0.15" stroke-miterlimit="10" stroke-linecap="round" stroke-linejoin="round"/>
<path d="M719.489 117.146V208.954L636.585 163.05V68.7084L719.489 117.146Z" stroke="#3A86FF" stroke-opacity="0.15" stroke-miterlimit="10" stroke-linecap="round" stroke-linejoin="round"/>
<path d="M719.488 208.954L802.103 162.448V68.7084L719.488 117.146V208.954Z" stroke="#3A86FF" stroke-opacity="0.15" stroke-miterlimit="10" stroke-linecap="round" stroke-linejoin="round"/>
<path d="M1296.05 95.1117L1378.95 143.55L1461.56 96.9736L1378.8 49.2078L1296.05 95.1117Z" stroke="#3A86FF" stroke-opacity="0.15" stroke-miterlimit="10" stroke-linecap="round" stroke-linejoin="round"/>
<path d="M1378.95 143.548V235.356L1296.05 189.452V95.1097L1378.95 143.548Z" stroke="#3A86FF" stroke-opacity="0.15" stroke-miterlimit="10" stroke-linecap="round" stroke-linejoin="round"/>
<path d="M1378.95 235.358L1461.56 188.852V96.9745L1378.95 143.55V235.358Z" stroke="#3A86FF" stroke-opacity="0.15" stroke-miterlimit="10" stroke-linecap="round" stroke-linejoin="round"/>
<path d="M1378.8 -43.8769L1461.71 4.56094L1544.32 -42.015L1461.56 -89.7809L1378.8 -43.8769Z" stroke="#3A86FF" stroke-opacity="0.15" stroke-miterlimit="10" stroke-linecap="round" stroke-linejoin="round"/>
<path d="M1461.71 4.55968V96.3816L1378.8 49.2037V-43.8782L1461.71 4.55968Z" stroke="#3A86FF" stroke-opacity="0.15" stroke-miterlimit="10" stroke-linecap="round" stroke-linejoin="round"/>
<path d="M1461.71 96.3843L1544.32 49.8784V-42.0135L1461.71 4.5624V96.3843Z" stroke="#3A86FF" stroke-opacity="0.15" stroke-miterlimit="10" stroke-linecap="round" stroke-linejoin="round"/>
<path d="M1860.9 -19.6594V72.1485L1778 26.2445V-68.0973L1860.9 -19.6594Z" stroke="#3A86FF" stroke-opacity="0.15" stroke-miterlimit="10" stroke-linecap="round" stroke-linejoin="round"/>
<path d="M1860.9 72.1512L1943.52 25.6453V-66.2327L1860.9 -19.6567V72.1512Z" stroke="#3A86FF" stroke-opacity="0.15" stroke-miterlimit="10" stroke-linecap="round" stroke-linejoin="round"/>
<path d="M602.032 390.956L684.936 439.408L767.551 392.832L684.792 345.052L602.032 390.956Z" stroke="#3A86FF" stroke-opacity="0.15" stroke-miterlimit="10" stroke-linecap="round" stroke-linejoin="round"/>
<path d="M684.936 439.407V531.215L602.032 485.311V390.955L684.936 439.407Z" stroke="#3A86FF" stroke-opacity="0.15" stroke-miterlimit="10" stroke-linecap="round" stroke-linejoin="round"/>
<path d="M684.935 531.214L767.55 484.709V392.831L684.935 439.407V531.214Z" stroke="#3A86FF" stroke-opacity="0.15" stroke-miterlimit="10" stroke-linecap="round" stroke-linejoin="round"/>
<path d="M436.512 480.581L519.416 529.033L602.031 485.313L519.271 434.677L436.512 480.581Z" stroke="#3A86FF" stroke-opacity="0.15" stroke-miterlimit="10" stroke-linecap="round" stroke-linejoin="round"/>
<path d="M519.416 529.032V620.84L436.512 574.936V480.58L519.416 529.032Z" stroke="#3A86FF" stroke-opacity="0.15" stroke-miterlimit="10" stroke-linecap="round" stroke-linejoin="round"/>
<path d="M519.415 620.844L602.03 574.338V485.316L519.415 529.036V620.844Z" stroke="#3A86FF" stroke-opacity="0.15" stroke-miterlimit="10" stroke-linecap="round" stroke-linejoin="round"/>
<path d="M599.184 611.976L682.102 660.414L764.703 613.838L681.943 566.072L599.184 611.976Z" stroke="#3A86FF" stroke-opacity="0.15" stroke-miterlimit="10" stroke-linecap="round" stroke-linejoin="round"/>
<path d="M682.102 660.412V752.22L599.184 706.316V611.974L682.102 660.412Z" stroke="#3A86FF" stroke-opacity="0.15" stroke-miterlimit="10" stroke-linecap="round" stroke-linejoin="round"/>
<path d="M682.104 752.223L764.704 705.717V613.839L682.104 660.415V752.223Z" stroke="#3A86FF" stroke-opacity="0.15" stroke-miterlimit="10" stroke-linecap="round" stroke-linejoin="round"/>
<path d="M764.705 613.236L847.624 661.688L930.224 615.098L847.465 567.332L764.705 613.236Z" stroke="#3A86FF" stroke-opacity="0.15" stroke-miterlimit="10" stroke-linecap="round" stroke-linejoin="round"/>
<path d="M847.624 661.686V753.494L764.706 707.59V613.234L847.624 661.686Z" stroke="#3A86FF" stroke-opacity="0.15" stroke-miterlimit="10" stroke-linecap="round" stroke-linejoin="round"/>
<path d="M847.625 753.497L930.226 706.991V615.099L847.625 661.689V753.497Z" stroke="#3A86FF" stroke-opacity="0.15" stroke-miterlimit="10" stroke-linecap="round" stroke-linejoin="round"/>
<path d="M847.464 526.486L930.382 574.938L1012.98 528.362L927.593 482.444L847.464 526.486Z" stroke="#3A86FF" stroke-opacity="0.15" stroke-miterlimit="10" stroke-linecap="round" stroke-linejoin="round"/>
<path d="M930.382 574.939V666.747L847.464 619.569V526.487L930.382 574.939Z" stroke="#3A86FF" stroke-opacity="0.15" stroke-miterlimit="10" stroke-linecap="round" stroke-linejoin="round"/>
<path d="M930.384 666.747L1012.98 620.241V528.363L930.384 574.939V666.747Z" stroke="#3A86FF" stroke-opacity="0.15" stroke-miterlimit="10" stroke-linecap="round" stroke-linejoin="round"/>
<path d="M1012.98 528.359L1095.9 576.195L1178.52 529.619L1095.76 481.853L1012.98 528.359Z" stroke="#3A86FF" stroke-opacity="0.15" stroke-miterlimit="10" stroke-linecap="round" stroke-linejoin="round"/>
<path d="M1095.9 576.193L1094.15 667.651L1012.98 622.097V528.357L1095.9 576.193Z" stroke="#3A86FF" stroke-opacity="0.15" stroke-miterlimit="10" stroke-linecap="round" stroke-linejoin="round"/>
<path d="M1094.15 667.654L1178.52 621.498V529.62L1095.9 576.196L1094.15 667.654Z" stroke="#3A86FF" stroke-opacity="0.15" stroke-miterlimit="10" stroke-linecap="round" stroke-linejoin="round"/>
<path d="M1178.52 435.952L1261.42 484.389L1344.04 437.813L1261.28 390.048L1178.52 435.952Z" stroke="#3A86FF" stroke-opacity="0.15" stroke-miterlimit="10" stroke-linecap="round" stroke-linejoin="round"/>
<path d="M1261.42 484.388V576.196L1178.52 530.292V435.95L1261.42 484.388Z" stroke="#3A86FF" stroke-opacity="0.15" stroke-miterlimit="10" stroke-linecap="round" stroke-linejoin="round"/>
<path d="M1261.42 576.199L1344.03 529.693V437.815L1261.42 484.391V576.199Z" stroke="#3A86FF" stroke-opacity="0.15" stroke-miterlimit="10" stroke-linecap="round" stroke-linejoin="round"/>
<path d="M1435.44 434.679L1518.34 483.117L1600.96 436.541L1518.2 388.775L1435.44 434.679Z" stroke="#3A86FF" stroke-opacity="0.15" stroke-miterlimit="10" stroke-linecap="round" stroke-linejoin="round"/>
<path d="M1518.34 483.115V574.937L1435.44 529.033V434.677L1518.34 483.115Z" stroke="#3A86FF" stroke-opacity="0.15" stroke-miterlimit="10" stroke-linecap="round" stroke-linejoin="round"/>
<path d="M1518.34 574.94L1600.95 528.434V436.542L1518.34 483.118V574.94Z" stroke="#3A86FF" stroke-opacity="0.15" stroke-miterlimit="10" stroke-linecap="round" stroke-linejoin="round"/>
<path d="M1518.2 295.691L1601.1 344.143L1683.72 297.553L1600.96 249.787L1518.2 295.691Z" stroke="#3A86FF" stroke-opacity="0.15" stroke-miterlimit="10" stroke-linecap="round" stroke-linejoin="round"/>
<path d="M1601.1 344.141V435.949L1518.2 390.045V295.689L1601.1 344.141Z" stroke="#3A86FF" stroke-opacity="0.15" stroke-miterlimit="10" stroke-linecap="round" stroke-linejoin="round"/>
<path d="M1601.1 435.952L1683.72 389.446V297.554L1601.1 344.144V435.952Z" stroke="#3A86FF" stroke-opacity="0.15" stroke-miterlimit="10" stroke-linecap="round" stroke-linejoin="round"/>
<path d="M1683.72 390.049L1766.62 438.487L1849.24 391.911L1766.48 344.145L1683.72 390.049Z" stroke="#3A86FF" stroke-opacity="0.15" stroke-miterlimit="10" stroke-linecap="round" stroke-linejoin="round"/>
<path d="M1766.62 438.485L1767 531.196L1684 483.242L1683.72 390.048L1766.62 438.485Z" stroke="#3A86FF" stroke-opacity="0.15" stroke-miterlimit="10" stroke-linecap="round" stroke-linejoin="round"/>
<path d="M1767 531.195L1849.23 484.988V391.912L1766.62 438.488L1767 531.195Z" stroke="#3A86FF" stroke-opacity="0.15" stroke-miterlimit="10" stroke-linecap="round" stroke-linejoin="round"/>
<path d="M1683.86 483.12L1766.78 531.572L1849.38 484.996L1766.62 437.216L1683.86 483.12Z" stroke="#3A86FF" stroke-opacity="0.15" stroke-miterlimit="10" stroke-linecap="round" stroke-linejoin="round"/>
<path d="M1766.78 531.571V623.379L1683.86 577.475V483.08L1766.78 531.571Z" stroke="#3A86FF" stroke-opacity="0.15" stroke-miterlimit="10" stroke-linecap="round" stroke-linejoin="round"/>
<path d="M1766.78 623.379L1849.38 576.873V484.995L1766.78 531.571V623.379Z" stroke="#3A86FF" stroke-opacity="0.15" stroke-miterlimit="10" stroke-linecap="round" stroke-linejoin="round"/>
<path d="M1600.83 623.588L1683.75 672.04L1766.9 623.588L1683.59 577.684L1600.83 623.588Z" stroke="#3A86FF" stroke-opacity="0.15" stroke-miterlimit="10" stroke-linecap="round" stroke-linejoin="round"/>
<path d="M1683.75 672.039V763.847L1600.83 717.943V623.588L1683.75 672.039Z" stroke="#3A86FF" stroke-opacity="0.15" stroke-miterlimit="10" stroke-linecap="round" stroke-linejoin="round"/>
<path d="M1683.75 763.847L1766.35 717.341L1766.9 623.588L1683.75 672.039V763.847Z" stroke="#3A86FF" stroke-opacity="0.15" stroke-miterlimit="10" stroke-linecap="round" stroke-linejoin="round"/>
<path d="M1419.64 1045.4L1502.55 1093.85L1585.16 1047.26L1501.46 999.313L1419.64 1045.4Z" stroke="#3A86FF" stroke-opacity="0.15" stroke-miterlimit="10" stroke-linecap="round" stroke-linejoin="round"/>
<path d="M1502.55 1093.85L1502 1188.02L1419.5 1140.55L1419.64 1045.4L1502.55 1093.85Z" stroke="#3A86FF" stroke-opacity="0.15" stroke-miterlimit="10" stroke-linecap="round" stroke-linejoin="round"/>
<path d="M1501.89 1188.37L1584.5 1141.86L1585 1047.55L1502.5 1094.05L1501.89 1188.37Z" stroke="#3A86FF" stroke-opacity="0.15" stroke-miterlimit="10" stroke-linecap="round" stroke-linejoin="round"/>
<path d="M1680.42 1029.23L1763.33 1077.67L1845.94 1031.1L1762.26 984.52L1680.42 1029.23Z" stroke="#3A86FF" stroke-opacity="0.15" stroke-miterlimit="10" stroke-linecap="round" stroke-linejoin="round"/>
<path d="M1763.33 1077.67V1169.48L1680.42 1123.58V1029.24L1763.33 1077.67Z" stroke="#3A86FF" stroke-opacity="0.15" stroke-miterlimit="10" stroke-linecap="round" stroke-linejoin="round"/>
<path d="M1763.33 1169.48L1845.94 1122.97V1031.1L1763.33 1077.67V1169.48Z" stroke="#3A86FF" stroke-opacity="0.15" stroke-miterlimit="10" stroke-linecap="round" stroke-linejoin="round"/>
<path d="M1763.18 753.07L1846.08 801.507L1928.7 754.932L1845.02 708.356L1763.18 753.07Z" stroke="#3A86FF" stroke-opacity="0.15" stroke-miterlimit="10" stroke-linecap="round" stroke-linejoin="round"/>
<path d="M1846.08 801.509V893.331L1763.18 847.413V753.072L1846.08 801.509Z" stroke="#3A86FF" stroke-opacity="0.15" stroke-miterlimit="10" stroke-linecap="round" stroke-linejoin="round"/>
<path d="M1846.08 893.329L1928.7 846.809V754.931L1846.08 801.507V893.329Z" stroke="#3A86FF" stroke-opacity="0.15" stroke-miterlimit="10" stroke-linecap="round" stroke-linejoin="round"/>
<path d="M1351.82 669.969L1434.74 718.407L1517.34 671.831L1433.67 625.255L1351.82 669.969Z" stroke="#3A86FF" stroke-opacity="0.15" stroke-miterlimit="10" stroke-linecap="round" stroke-linejoin="round"/>
<path d="M1434.74 718.408L1435.51 810.902L1351.83 764.312V669.971L1434.74 718.408Z" stroke="#3A86FF" stroke-opacity="0.15" stroke-miterlimit="10" stroke-linecap="round" stroke-linejoin="round"/>
<path d="M1435.51 810.9L1517.35 763.708V671.83L1434.75 718.406L1435.51 810.9Z" stroke="#3A86FF" stroke-opacity="0.15" stroke-miterlimit="10" stroke-linecap="round" stroke-linejoin="round"/>
<path d="M888.923 733.942L1009.64 799.487" stroke="#3A86FF" stroke-opacity="0.15" stroke-miterlimit="10" stroke-linecap="round" stroke-linejoin="round"/>
<path d="M1095.9 576.197L1092.41 752.911" stroke="#3A86FF" stroke-opacity="0.15" stroke-miterlimit="10" stroke-linecap="round" stroke-linejoin="round"/>
<path d="M802.724 411.229L927.593 482.443" stroke="#3A86FF" stroke-opacity="0.15" stroke-miterlimit="10" stroke-linecap="round" stroke-linejoin="round"/>
<path d="M767.55 182.563V339.44" stroke="#3A86FF" stroke-opacity="0.15" stroke-miterlimit="10" stroke-linecap="round" stroke-linejoin="round"/>
<path d="M519.417 620.842L516.426 802.596" stroke="#3A86FF" stroke-opacity="0.15" stroke-miterlimit="10" stroke-linecap="round" stroke-linejoin="round"/>
<path d="M1010.51 139.766L1009.08 392.833" stroke="#3A86FF" stroke-opacity="0.15" stroke-miterlimit="10" stroke-linecap="round" stroke-linejoin="round"/>
</svg>
