<svg width="581" height="2296" viewBox="0 0 581 2296" fill="none" xmlns="http://www.w3.org/2000/svg">
<path d="M156.936 484.375L213.187 518.304L269.222 485.689L213.079 452.23L156.936 484.375Z" stroke="#3A86FF" stroke-opacity="0.15" stroke-miterlimit="10" stroke-linecap="round" stroke-linejoin="round"/>
<path d="M213.187 518.305V582.594L156.936 550.449V484.375L213.187 518.305Z" stroke="#3A86FF" stroke-opacity="0.15" stroke-miterlimit="10" stroke-linecap="round" stroke-linejoin="round"/>
<path d="M213.188 582.597L269.331 550.452L269.223 485.692L213.188 518.308V582.597Z" stroke="#3A86FF" stroke-opacity="0.15" stroke-miterlimit="10" stroke-linecap="round" stroke-linejoin="round"/>
<path d="M1 687.071L57.2511 720.991L113.287 688.375L57.1433 656.23L1 687.071Z" stroke="#3A86FF" stroke-opacity="0.15" stroke-miterlimit="10" stroke-linecap="round" stroke-linejoin="round"/>
<path d="M57.2513 720.992V785.292L1.00024 753.137V687.073L57.2513 720.992Z" stroke="#3A86FF" stroke-opacity="0.15" stroke-miterlimit="10" stroke-linecap="round" stroke-linejoin="round"/>
<path d="M57.252 785.286L113.287 752.72V688.371L57.252 720.987V785.286Z" stroke="#3A86FF" stroke-opacity="0.15" stroke-miterlimit="10" stroke-linecap="round" stroke-linejoin="round"/>
<path d="M409.58 33.1449L465.831 67.0641L521.867 34.4487L465.723 1L409.58 33.1449Z" stroke="#3A86FF" stroke-opacity="0.15" stroke-miterlimit="10" stroke-linecap="round" stroke-linejoin="round"/>
<path d="M465.831 67.0643L467.508 131.364L409.58 99.2092V33.145L465.831 67.0643Z" stroke="#3A86FF" stroke-opacity="0.15" stroke-miterlimit="10" stroke-linecap="round" stroke-linejoin="round"/>
<path d="M467.508 131.366L523.661 98.7995L521.867 34.4509L465.832 67.0664L467.508 131.366Z" stroke="#3A86FF" stroke-opacity="0.15" stroke-miterlimit="10" stroke-linecap="round" stroke-linejoin="round"/>
<path d="M17.9358 54.1722L74.1771 88.0915L130.222 54.1722L74.0791 22.0273L17.9358 54.1722Z" stroke="#3A86FF" stroke-opacity="0.15" stroke-miterlimit="10" stroke-linecap="round" stroke-linejoin="round"/>
<path d="M74.1769 88.0911V152.381L17.9355 120.236V54.1719L74.1769 88.0911Z" stroke="#3A86FF" stroke-opacity="0.15" stroke-miterlimit="10" stroke-linecap="round" stroke-linejoin="round"/>
<path d="M74.1768 152.381L130.222 119.814V54.1719L74.1768 88.0911V152.381Z" stroke="#3A86FF" stroke-opacity="0.15" stroke-miterlimit="10" stroke-linecap="round" stroke-linejoin="round"/>
<path d="M71.9355 434.375L128.187 468.304L184.222 435.679L128.079 402.23L71.9355 434.375Z" stroke="#3A86FF" stroke-opacity="0.15" stroke-miterlimit="10" stroke-linecap="round" stroke-linejoin="round"/>
<path d="M128.187 468.308V532.598L71.9363 500.453V434.379L128.187 468.308Z" stroke="#3A86FF" stroke-opacity="0.15" stroke-miterlimit="10" stroke-linecap="round" stroke-linejoin="round"/>
<path d="M128.19 532.596L184.225 500.03V435.681L128.19 468.306V532.596Z" stroke="#3A86FF" stroke-opacity="0.15" stroke-miterlimit="10" stroke-linecap="round" stroke-linejoin="round"/>
<path d="M355.227 130.052L411.478 163.981L467.513 131.366L409.586 99.2109L355.227 130.052Z" stroke="#3A86FF" stroke-opacity="0.15" stroke-miterlimit="10" stroke-linecap="round" stroke-linejoin="round"/>
<path d="M411.478 163.983V228.272L355.227 195.235V130.054L411.478 163.983Z" stroke="#3A86FF" stroke-opacity="0.15" stroke-miterlimit="10" stroke-linecap="round" stroke-linejoin="round"/>
<path d="M411.479 228.268L467.514 195.702V131.363L411.479 163.978V228.268Z" stroke="#3A86FF" stroke-opacity="0.15" stroke-miterlimit="10" stroke-linecap="round" stroke-linejoin="round"/>
<path d="M467.508 131.363L523.759 164.861L579.804 132.246L523.661 98.7969L467.508 131.363Z" stroke="#3A86FF" stroke-opacity="0.15" stroke-miterlimit="10" stroke-linecap="round" stroke-linejoin="round"/>
<path d="M523.76 164.859L522.573 228.903L467.508 197.003V131.361L523.76 164.859Z" stroke="#3A86FF" stroke-opacity="0.15" stroke-miterlimit="10" stroke-linecap="round" stroke-linejoin="round"/>
<path d="M522.573 228.907L579.804 196.586V132.247L523.759 164.862L522.573 228.907Z" stroke="#3A86FF" stroke-opacity="0.15" stroke-miterlimit="10" stroke-linecap="round" stroke-linejoin="round"/>
<path d="M417.03 311.341L473.271 345.26L529.317 312.645L473.173 279.196L417.03 311.341Z" stroke="#3A86FF" stroke-opacity="0.15" stroke-miterlimit="10" stroke-linecap="round" stroke-linejoin="round"/>
<path d="M473.271 345.26V409.55L417.03 377.405V311.341L473.271 345.26Z" stroke="#3A86FF" stroke-opacity="0.15" stroke-miterlimit="10" stroke-linecap="round" stroke-linejoin="round"/>
<path d="M473.271 409.552L529.316 376.985V312.647L473.271 345.262V409.552Z" stroke="#3A86FF" stroke-opacity="0.15" stroke-miterlimit="10" stroke-linecap="round" stroke-linejoin="round"/>
<path d="M107.936 520.73L156.436 550.23" stroke="#3A86FF" stroke-opacity="0.15" stroke-miterlimit="10" stroke-linecap="round" stroke-linejoin="round"/>
<path d="M418.936 1350.38L475.187 1384.3L531.222 1351.68L475.079 1318.23L418.936 1350.38Z" stroke="#3A86FF" stroke-opacity="0.15" stroke-miterlimit="10" stroke-linecap="round" stroke-linejoin="round"/>
<path d="M475.187 1384.31V1448.6L418.936 1416.45V1350.38L475.187 1384.31Z" stroke="#3A86FF" stroke-opacity="0.15" stroke-miterlimit="10" stroke-linecap="round" stroke-linejoin="round"/>
<path d="M475.19 1448.6L531.225 1416.03V1351.68L475.19 1384.31V1448.6Z" stroke="#3A86FF" stroke-opacity="0.15" stroke-miterlimit="10" stroke-linecap="round" stroke-linejoin="round"/>
<path d="M306.936 1350.38L363.187 1384.3L419.222 1351.68L363.079 1318.23L306.936 1350.38Z" stroke="#3A86FF" stroke-opacity="0.15" stroke-miterlimit="10" stroke-linecap="round" stroke-linejoin="round"/>
<path d="M363.187 1384.31V1448.6L306.936 1416.45V1350.38L363.187 1384.31Z" stroke="#3A86FF" stroke-opacity="0.15" stroke-miterlimit="10" stroke-linecap="round" stroke-linejoin="round"/>
<path d="M363.19 1448.6L419.225 1416.03V1351.68L363.19 1384.31V1448.6Z" stroke="#3A86FF" stroke-opacity="0.15" stroke-miterlimit="10" stroke-linecap="round" stroke-linejoin="round"/>
<path d="M405.936 2138.38L462.187 2172.3L518.222 2139.68L462.079 2106.23L405.936 2138.38Z" stroke="#3A86FF" stroke-opacity="0.15" stroke-miterlimit="10" stroke-linecap="round" stroke-linejoin="round"/>
<path d="M462.187 2172.31V2236.6L405.936 2204.45V2138.38L462.187 2172.31Z" stroke="#3A86FF" stroke-opacity="0.15" stroke-miterlimit="10" stroke-linecap="round" stroke-linejoin="round"/>
<path d="M462.19 2236.6L518.225 2204.03V2139.68L462.19 2172.31V2236.6Z" stroke="#3A86FF" stroke-opacity="0.15" stroke-miterlimit="10" stroke-linecap="round" stroke-linejoin="round"/>
<path d="M409.936 690.375L466.187 724.304L522.222 691.689L466.079 658.23L409.936 690.375Z" stroke="#3A86FF" stroke-opacity="0.15" stroke-miterlimit="10" stroke-linecap="round" stroke-linejoin="round"/>
<path d="M466.187 724.305V788.594L409.936 756.449V690.375L466.187 724.305Z" stroke="#3A86FF" stroke-opacity="0.15" stroke-miterlimit="10" stroke-linecap="round" stroke-linejoin="round"/>
<path d="M466.188 788.597L522.331 756.452L522.223 691.692L466.188 724.308V788.597Z" stroke="#3A86FF" stroke-opacity="0.15" stroke-miterlimit="10" stroke-linecap="round" stroke-linejoin="round"/>
<path d="M30.9355 2196.38L87.1867 2230.3L143.222 2197.68L87.0788 2164.23L30.9355 2196.38Z" stroke="#3A86FF" stroke-opacity="0.15" stroke-miterlimit="10" stroke-linecap="round" stroke-linejoin="round"/>
<path d="M87.1874 2230.31V2294.6L30.9363 2262.45V2196.38L87.1874 2230.31Z" stroke="#3A86FF" stroke-opacity="0.15" stroke-miterlimit="10" stroke-linecap="round" stroke-linejoin="round"/>
<path d="M87.1899 2294.6L143.225 2262.03V2197.68L87.1899 2230.31V2294.6Z" stroke="#3A86FF" stroke-opacity="0.15" stroke-miterlimit="10" stroke-linecap="round" stroke-linejoin="round"/>
</svg>
