<?xml version="1.0" encoding="utf-8"?>
<svg width="160" height="160" viewBox="0 0 256 256" fill="none" xmlns="http://www.w3.org/2000/svg">
  <g style="" transform="matrix(0.9, 0, 0, 0.9, 12.799995, 12.799995)">
    <circle cx="128" cy="128" r="128" fill="#3650A2" style=""/>
    <path fill-rule="evenodd" clip-rule="evenodd" d="M 128.01 48 C 131.689 48 135.044 50.102 136.647 53.412 L 175.057 132.613 L 175.924 134.4 L 154.587 134.4 L 148.378 121.6 L 107.64 121.6 L 101.433 134.4 L 80.094 134.4 L 80.963 132.611 L 119.372 53.412 C 120.978 50.102 124.331 48 128.01 48 Z M 115.4 105.601 L 140.619 105.601 L 128.01 79.601 L 115.4 105.601 Z M 156.798 161.6 L 176.008 161.6 C 175.43 187.443 154.039 208 128.01 208 C 101.983 208 80.589 187.443 80.012 161.6 L 99.22 161.6 C 99.671 173.367 107.489 183.409 118.399 187.195 L 118.399 148.801 C 118.399 143.499 122.698 139.2 128 139.2 C 133.302 139.2 137.601 143.499 137.601 148.801 L 137.601 187.201 C 148.522 183.421 156.349 173.376 156.798 161.6 Z" fill="white" style=""/>
  </g>
</svg>