<svg width="379" height="134" viewBox="0 0 379 134" fill="none" xmlns="http://www.w3.org/2000/svg">
<g clip-path="url(#clip0)">
<rect x="1" y="29.5234" width="378" height="104.362" rx="12" fill="#F5F5F5"/>
<path d="M130.937 51.9826H127.006V66.8548H126.814L116.544 51.9826H113.007V73.8008H116.96V58.9393H117.141L127.422 73.8008H130.937V51.9826ZM141.268 74.1204C145.082 74.1204 147.702 72.256 148.384 69.4116L144.783 69.0067C144.261 70.3917 142.983 71.1161 141.321 71.1161C138.828 71.1161 137.177 69.4755 137.145 66.6737H148.544V65.4911C148.544 59.7489 145.092 57.2241 141.065 57.2241C136.378 57.2241 133.32 60.6651 133.32 65.7148C133.32 70.8498 136.335 74.1204 141.268 74.1204ZM137.155 64.0742C137.273 61.9862 138.817 60.2283 141.119 60.2283C143.334 60.2283 144.826 61.8477 144.847 64.0742H137.155ZM154.046 73.8008H158.073L161.141 62.7425H161.365L164.433 73.8008H168.449L173.083 57.4371H169.142L166.308 68.8789H166.148L163.208 57.4371H159.319L156.379 68.9428H156.23L153.353 57.4371H149.422L154.046 73.8008ZM188.681 73.8008C195.329 73.8008 199.271 69.6886 199.271 62.8704C199.271 56.0735 195.329 51.9826 188.831 51.9826H181.288V73.8008H188.681ZM185.24 70.381V55.4023H188.607C193.039 55.4023 195.35 57.8739 195.35 62.8704C195.35 67.8881 193.039 70.381 188.49 70.381H185.24ZM209.05 74.1204C212.864 74.1204 215.485 72.256 216.167 69.4116L212.566 69.0067C212.044 70.3917 210.765 71.1161 209.103 71.1161C206.61 71.1161 204.959 69.4755 204.927 66.6737H216.326V65.4911C216.326 59.7489 212.875 57.2241 208.848 57.2241C204.16 57.2241 201.103 60.6651 201.103 65.7148C201.103 70.8498 204.118 74.1204 209.05 74.1204ZM204.938 64.0742C205.055 61.9862 206.6 60.2283 208.901 60.2283C211.117 60.2283 212.608 61.8477 212.63 64.0742H204.938ZM231.472 61.7624C230.94 58.9925 228.724 57.2241 224.888 57.2241C220.947 57.2241 218.262 59.163 218.273 62.1886C218.262 64.5749 219.732 66.1516 222.875 66.8015L225.666 67.3874C227.168 67.7177 227.871 68.3249 227.871 69.2518C227.871 70.3704 226.657 71.212 224.824 71.212C223.056 71.212 221.905 70.445 221.575 68.9748L217.815 69.337C218.294 72.3413 220.819 74.1204 224.835 74.1204C228.926 74.1204 231.813 72.0004 231.824 68.9002C231.813 66.5671 230.311 65.1396 227.221 64.4684L224.43 63.8718C222.768 63.4989 222.108 62.9237 222.118 61.9755C222.108 60.8675 223.333 60.1005 224.942 60.1005C226.721 60.1005 227.658 61.07 227.957 62.146L231.472 61.7624ZM233.954 73.8008H237.81V57.4371H233.954V73.8008ZM235.893 55.1147C237.118 55.1147 238.119 54.1772 238.119 53.0266C238.119 51.8654 237.118 50.9279 235.893 50.9279C234.657 50.9279 233.656 51.8654 233.656 53.0266C233.656 54.1772 234.657 55.1147 235.893 55.1147ZM247.843 80.2781C252.264 80.2781 255.524 78.2539 255.524 74.0671V57.4371H251.72V60.1431H251.507C250.921 58.9606 249.696 57.2241 246.809 57.2241C243.027 57.2241 240.055 60.1857 240.055 65.5657C240.055 70.9031 243.027 73.5664 246.799 73.5664C249.6 73.5664 250.911 72.0643 251.507 70.8604H251.699V73.9606C251.699 76.3683 250.101 77.359 247.906 77.359C245.584 77.359 244.561 76.2617 244.093 75.3029L240.62 76.1445C241.323 78.435 243.677 80.2781 247.843 80.2781ZM247.875 70.5408C245.328 70.5408 243.986 68.5593 243.986 65.5444C243.986 62.5721 245.307 60.3881 247.875 60.3881C250.357 60.3881 251.72 62.4442 251.72 65.5444C251.72 68.6658 250.335 70.5408 247.875 70.5408ZM262.283 64.2127C262.283 61.8477 263.71 60.484 265.745 60.484C267.737 60.484 268.93 61.7944 268.93 63.9783V73.8008H272.787V63.3817C272.798 59.4613 270.56 57.2241 267.183 57.2241C264.733 57.2241 263.05 58.396 262.304 60.2177H262.112V57.4371H258.426V73.8008H262.283V64.2127ZM280.377 51.9826H276.254L276.595 67.3874H280.025L280.377 51.9826ZM278.31 74.0352C279.567 74.0352 280.643 72.9911 280.654 71.6914C280.643 70.413 279.567 69.369 278.31 69.369C277.01 69.369 275.956 70.413 275.966 71.6914C275.956 72.9911 277.01 74.0352 278.31 74.0352Z" fill="#0A2540"/>
<path d="M118.935 88.4294C118.611 86.6397 117.179 85.5829 115.424 85.5829C113.191 85.5829 111.571 87.3044 111.571 90.0658C111.571 92.8272 113.191 94.5488 115.424 94.5488C117.179 94.5488 118.611 93.4919 118.935 91.7022H117.878C117.623 92.9124 116.583 93.5601 115.424 93.5601C113.838 93.5601 112.594 92.3329 112.594 90.0658C112.594 87.7988 113.838 86.5715 115.424 86.5715C116.583 86.5715 117.623 87.2192 117.878 88.4294H118.935ZM121.752 90.4919C121.752 89.3499 122.481 88.7022 123.474 88.7022C124.42 88.7022 124.991 89.2988 124.991 90.3385V94.4294H125.996V90.2704C125.996 88.5871 125.102 87.7988 123.763 87.7988C122.732 87.7988 122.144 88.2292 121.837 88.9067H121.752V85.7022H120.746V94.4294H121.752V90.4919ZM130.821 94.5658C132.15 94.5658 133.122 93.901 133.429 92.9124L132.457 92.6397C132.201 93.3215 131.609 93.6624 130.821 93.6624C129.64 93.6624 128.826 92.8996 128.779 91.4976H133.531V91.0715C133.531 88.634 132.082 87.7988 130.718 87.7988C128.946 87.7988 127.769 89.1965 127.769 91.2079C127.769 93.2192 128.929 94.5658 130.821 94.5658ZM128.779 90.6283C128.848 89.6098 129.568 88.7022 130.718 88.7022C131.809 88.7022 132.508 89.5204 132.508 90.6283H128.779ZM137.96 94.5658C139.409 94.5658 140.363 93.6794 140.534 92.5204H139.528C139.34 93.2363 138.744 93.6624 137.96 93.6624C136.767 93.6624 135.999 92.6738 135.999 91.1567C135.999 89.6738 136.784 88.7022 137.96 88.7022C138.846 88.7022 139.374 89.2476 139.528 89.8442H140.534C140.363 88.6169 139.323 87.7988 137.943 87.7988C136.17 87.7988 134.994 89.1965 134.994 91.1908C134.994 93.151 136.119 94.5658 137.96 94.5658ZM142.244 94.4294H143.249V91.9792L143.953 91.3272L146.403 94.4294H147.681L144.711 90.6794L147.477 87.884H146.232L143.369 90.7988H143.249V85.7022H142.244V94.4294ZM155.285 94.5658C157.058 94.5658 158.251 93.2192 158.251 91.1908C158.251 89.1454 157.058 87.7988 155.285 87.7988C153.512 87.7988 152.319 89.1454 152.319 91.1908C152.319 93.2192 153.512 94.5658 155.285 94.5658ZM155.285 93.6624C153.939 93.6624 153.325 92.5033 153.325 91.1908C153.325 89.8783 153.939 88.7022 155.285 88.7022C156.632 88.7022 157.245 89.8783 157.245 91.1908C157.245 92.5033 156.632 93.6624 155.285 93.6624ZM164.151 91.7533C164.151 92.9806 163.214 93.5431 162.464 93.5431C161.629 93.5431 161.032 92.9294 161.032 91.9749V87.884H160.026V92.0431C160.026 93.7135 160.913 94.5147 162.14 94.5147C163.129 94.5147 163.776 93.9863 164.083 93.3215H164.151V94.4294H165.157V87.884H164.151V91.7533ZM170.085 87.884H168.688V86.3158H167.682V87.884H166.693V88.7363H167.682V92.8272C167.682 93.9692 168.603 94.5147 169.455 94.5147C169.83 94.5147 170.068 94.4465 170.205 94.3954L170 93.4919C169.915 93.509 169.779 93.5431 169.557 93.5431C169.114 93.5431 168.688 93.4067 168.688 92.5544V88.7363H170.085V87.884ZM178.3 87.884H176.902V86.3158H175.896V87.884H174.908V88.7363H175.896V92.8272C175.896 93.9692 176.817 94.5147 177.669 94.5147C178.044 94.5147 178.283 94.4465 178.419 94.3954L178.215 93.4919C178.129 93.509 177.993 93.5431 177.771 93.5431C177.328 93.5431 176.902 93.4067 176.902 92.5544V88.7363H178.3V87.884ZM181.199 90.4919C181.199 89.3499 181.928 88.7022 182.921 88.7022C183.867 88.7022 184.438 89.2988 184.438 90.3385V94.4294H185.443V90.2704C185.443 88.5871 184.548 87.7988 183.21 87.7988C182.179 87.7988 181.591 88.2292 181.284 88.9067H181.199V85.7022H180.193V94.4294H181.199V90.4919ZM190.267 94.5658C191.597 94.5658 192.569 93.901 192.875 92.9124L191.904 92.6397C191.648 93.3215 191.056 93.6624 190.267 93.6624C189.087 93.6624 188.273 92.8996 188.226 91.4976H192.978V91.0715C192.978 88.634 191.529 87.7988 190.165 87.7988C188.392 87.7988 187.216 89.1965 187.216 91.2079C187.216 93.2192 188.375 94.5658 190.267 94.5658ZM188.226 90.6283C188.294 89.6098 189.015 88.7022 190.165 88.7022C191.256 88.7022 191.955 89.5204 191.955 90.6283H188.226ZM199.368 90.4919C199.368 89.3499 200.076 88.7022 201.039 88.7022C201.972 88.7022 202.539 89.3115 202.539 90.3385V94.4294H203.544V90.2704C203.544 88.5999 202.654 87.7988 201.328 87.7988C200.34 87.7988 199.726 88.2419 199.419 88.9067H199.334V87.884H198.362V94.4294H199.368V90.4919ZM208.366 94.5658C209.696 94.5658 210.667 93.901 210.974 92.9124L210.003 92.6397C209.747 93.3215 209.155 93.6624 208.366 93.6624C207.186 93.6624 206.372 92.8996 206.325 91.4976H211.077V91.0715C211.077 88.634 209.628 87.7988 208.264 87.7988C206.491 87.7988 205.315 89.1965 205.315 91.2079C205.315 93.2192 206.474 94.5658 208.366 94.5658ZM206.325 90.6283C206.393 89.6098 207.113 88.7022 208.264 88.7022C209.355 88.7022 210.054 89.5204 210.054 90.6283H206.325ZM214.329 94.4294H215.318L216.75 89.401H216.852L218.284 94.4294H219.273L221.267 87.884H220.21L218.795 92.8783H218.727L217.346 87.884H216.273L214.875 92.8954H214.807L213.392 87.884H212.335L214.329 94.4294ZM229.298 87.884H227.9V86.3158H226.895V87.884H225.906V88.7363H226.895V92.8272C226.895 93.9692 227.815 94.5147 228.667 94.5147C229.042 94.5147 229.281 94.4465 229.417 94.3954L229.213 93.4919C229.128 93.509 228.991 93.5431 228.77 93.5431C228.326 93.5431 227.9 93.4067 227.9 92.5544V88.7363H229.298V87.884ZM231.051 94.4294H232.056V90.2874C232.056 89.401 232.755 88.7533 233.71 88.7533C233.978 88.7533 234.255 88.8044 234.323 88.8215V87.7988C234.208 87.7902 233.944 87.7817 233.795 87.7817C233.011 87.7817 232.329 88.2249 232.091 88.8726H232.022V87.884H231.051V94.4294ZM237.682 94.5829C238.824 94.5829 239.42 93.9692 239.625 93.5431H239.676V94.4294H240.682V90.1169C240.682 88.0374 239.097 87.7988 238.261 87.7988C237.273 87.7988 236.148 88.1397 235.636 89.3329L236.591 89.6738C236.812 89.1965 237.337 88.6851 238.295 88.6851C239.22 88.6851 239.676 89.1752 239.676 90.0147V90.0488C239.676 90.5346 239.182 90.4919 237.989 90.6454C236.774 90.803 235.449 91.0715 235.449 92.5715C235.449 93.8499 236.437 94.5829 237.682 94.5829ZM237.835 93.6794C237.034 93.6794 236.454 93.3215 236.454 92.6226C236.454 91.8556 237.153 91.6169 237.937 91.5147C238.364 91.4635 239.506 91.3442 239.676 91.1397V92.0601C239.676 92.8783 239.028 93.6794 237.835 93.6794ZM245.229 94.5658C246.49 94.5658 246.916 93.7817 247.138 93.4238H247.257V94.4294H248.229V85.7022H247.223V88.9238H247.138C246.916 88.5829 246.524 87.7988 245.246 87.7988C243.593 87.7988 242.451 89.1113 242.451 91.1738C242.451 93.2533 243.593 94.5658 245.229 94.5658ZM245.365 93.6624C244.104 93.6624 243.456 92.5544 243.456 91.1567C243.456 89.776 244.087 88.7022 245.365 88.7022C246.593 88.7022 247.24 89.6908 247.24 91.1567C247.24 92.6397 246.576 93.6624 245.365 93.6624ZM250.45 94.4294H251.456V87.884H250.45V94.4294ZM250.962 86.7931C251.354 86.7931 251.678 86.4863 251.678 86.1113C251.678 85.7363 251.354 85.4294 250.962 85.4294C250.57 85.4294 250.246 85.7363 250.246 86.1113C250.246 86.4863 250.57 86.7931 250.962 86.7931ZM254.544 90.4919C254.544 89.3499 255.251 88.7022 256.214 88.7022C257.147 88.7022 257.714 89.3115 257.714 90.3385V94.4294H258.72V90.2704C258.72 88.5999 257.829 87.7988 256.504 87.7988C255.515 87.7988 254.902 88.2419 254.595 88.9067H254.51V87.884H253.538V94.4294H254.544V90.4919ZM263.44 97.0204C265.008 97.0204 266.269 96.3044 266.269 94.6169V87.884H265.298V88.9238H265.195C264.974 88.5829 264.565 87.7988 263.286 87.7988C261.633 87.7988 260.491 89.1113 260.491 91.1226C260.491 93.1681 261.684 94.3272 263.269 94.3272C264.548 94.3272 264.957 93.5772 265.178 93.2192H265.264V94.5488C265.264 95.6397 264.497 96.134 263.44 96.134C262.251 96.134 261.833 95.5076 261.565 95.1454L260.764 95.7079C261.173 96.3939 261.978 97.0204 263.44 97.0204ZM263.406 93.4238C262.144 93.4238 261.497 92.4692 261.497 91.1056C261.497 89.776 262.127 88.7022 263.406 88.7022C264.633 88.7022 265.281 89.6908 265.281 91.1056C265.281 92.5544 264.616 93.4238 263.406 93.4238ZM271.965 94.4294H272.971V87.884H271.965V94.4294ZM272.477 86.7931C272.869 86.7931 273.192 86.4863 273.192 86.1113C273.192 85.7363 272.869 85.4294 272.477 85.4294C272.084 85.4294 271.761 85.7363 271.761 86.1113C271.761 86.4863 272.084 86.7931 272.477 86.7931ZM276.058 90.4919C276.058 89.3499 276.766 88.7022 277.729 88.7022C278.662 88.7022 279.229 89.3115 279.229 90.3385V94.4294H280.235V90.2704C280.235 88.5999 279.344 87.7988 278.019 87.7988C277.03 87.7988 276.416 88.2419 276.11 88.9067H276.024V87.884H275.053V94.4294H276.058V90.4919ZM285.159 87.884H283.761V86.3158H282.756V87.884H281.767V88.7363H282.756V92.8272C282.756 93.9692 283.676 94.5147 284.528 94.5147C284.903 94.5147 285.142 94.4465 285.278 94.3954L285.074 93.4919C284.988 93.509 284.852 93.5431 284.631 93.5431C284.187 93.5431 283.761 93.4067 283.761 92.5544V88.7363H285.159V87.884ZM289.586 94.5658C290.915 94.5658 291.887 93.901 292.194 92.9124L291.222 92.6397C290.966 93.3215 290.374 93.6624 289.586 93.6624C288.405 93.6624 287.591 92.8996 287.545 91.4976H292.296V91.0715C292.296 88.634 290.847 87.7988 289.483 87.7988C287.711 87.7988 286.535 89.1965 286.535 91.2079C286.535 93.2192 287.694 94.5658 289.586 94.5658ZM287.545 90.6283C287.613 89.6098 288.333 88.7022 289.483 88.7022C290.574 88.7022 291.273 89.5204 291.273 90.6283H287.545ZM294.066 94.4294H295.071V90.2874C295.071 89.401 295.77 88.7533 296.725 88.7533C296.993 88.7533 297.27 88.8044 297.338 88.8215V87.7988C297.223 87.7902 296.959 87.7817 296.81 87.7817C296.026 87.7817 295.344 88.2249 295.106 88.8726H295.037V87.884H294.066V94.4294ZM302.096 87.884H300.63V87.2192C300.63 86.5715 300.902 86.2306 301.567 86.2306C301.857 86.2306 302.027 86.2988 302.13 86.3329L302.419 85.4635C302.266 85.3954 301.959 85.2931 301.465 85.2931C300.527 85.2931 299.624 85.8556 299.624 86.9806V87.884H298.567V88.7363H299.624V94.4294H300.63V88.7363H302.096V87.884ZM305.484 94.5829C306.626 94.5829 307.222 93.9692 307.427 93.5431H307.478V94.4294H308.484V90.1169C308.484 88.0374 306.898 87.7988 306.063 87.7988C305.075 87.7988 303.95 88.1397 303.438 89.3329L304.393 89.6738C304.614 89.1965 305.138 88.6851 306.097 88.6851C307.022 88.6851 307.478 89.1752 307.478 90.0147V90.0488C307.478 90.5346 306.984 90.4919 305.79 90.6454C304.576 90.803 303.251 91.0715 303.251 92.5715C303.251 93.8499 304.239 94.5829 305.484 94.5829ZM305.637 93.6794C304.836 93.6794 304.256 93.3215 304.256 92.6226C304.256 91.8556 304.955 91.6169 305.739 91.5147C306.165 91.4635 307.307 91.3442 307.478 91.1397V92.0601C307.478 92.8783 306.83 93.6794 305.637 93.6794ZM313.218 94.5658C314.667 94.5658 315.622 93.6794 315.792 92.5204H314.786C314.599 93.2363 314.002 93.6624 313.218 93.6624C312.025 93.6624 311.258 92.6738 311.258 91.1567C311.258 89.6738 312.042 88.7022 313.218 88.7022C314.105 88.7022 314.633 89.2476 314.786 89.8442H315.792C315.622 88.6169 314.582 87.7988 313.201 87.7988C311.429 87.7988 310.252 89.1965 310.252 91.1908C310.252 93.151 311.377 94.5658 313.218 94.5658ZM320.247 94.5658C321.576 94.5658 322.548 93.901 322.855 92.9124L321.883 92.6397C321.627 93.3215 321.035 93.6624 320.247 93.6624C319.066 93.6624 318.252 92.8996 318.205 91.4976H322.957V91.0715C322.957 88.634 321.508 87.7988 320.144 87.7988C318.372 87.7988 317.196 89.1965 317.196 91.2079C317.196 93.2192 318.355 94.5658 320.247 94.5658ZM318.205 90.6283C318.274 89.6098 318.994 88.7022 320.144 88.7022C321.235 88.7022 321.934 89.5204 321.934 90.6283H318.205ZM325.46 94.4976C325.882 94.4976 326.227 94.1525 326.227 93.7306C326.227 93.3087 325.882 92.9635 325.46 92.9635C325.038 92.9635 324.693 93.3087 324.693 93.7306C324.693 94.1525 325.038 94.4976 325.46 94.4976ZM111.435 101.64H114.179V109.429H115.236V101.64H117.98V100.702H111.435V101.64ZM120.751 109.583C121.893 109.583 122.489 108.969 122.694 108.543H122.745V109.429H123.751V105.117C123.751 103.037 122.165 102.799 121.33 102.799C120.342 102.799 119.217 103.14 118.705 104.333L119.66 104.674C119.881 104.196 120.405 103.685 121.364 103.685C122.289 103.685 122.745 104.175 122.745 105.015V105.049C122.745 105.535 122.251 105.492 121.057 105.645C119.843 105.803 118.518 106.071 118.518 107.571C118.518 108.85 119.506 109.583 120.751 109.583ZM120.904 108.679C120.103 108.679 119.523 108.321 119.523 107.623C119.523 106.856 120.222 106.617 121.006 106.515C121.432 106.464 122.575 106.344 122.745 106.14V107.06C122.745 107.878 122.097 108.679 120.904 108.679ZM125.826 109.429H126.832V106.979L127.535 106.327L129.985 109.429H131.264L128.294 105.679L131.059 102.884H129.815L126.951 105.799H126.832V100.702H125.826V109.429ZM135.068 109.566C136.398 109.566 137.37 108.901 137.676 107.912L136.705 107.64C136.449 108.321 135.857 108.662 135.068 108.662C133.888 108.662 133.074 107.9 133.027 106.498H137.779V106.071C137.779 103.634 136.33 102.799 134.966 102.799C133.193 102.799 132.017 104.196 132.017 106.208C132.017 108.219 133.176 109.566 135.068 109.566ZM133.027 105.628C133.095 104.61 133.816 103.702 134.966 103.702C136.057 103.702 136.756 104.52 136.756 105.628H133.027ZM143.163 109.429H144.169V105.339C144.169 104.38 144.868 103.702 145.652 103.702C146.415 103.702 146.948 104.201 146.948 104.946V109.429H147.97V105.168C147.97 104.324 148.499 103.702 149.419 103.702C150.135 103.702 150.749 104.081 150.749 105.049V109.429H151.754V105.049C151.754 103.51 150.928 102.799 149.76 102.799C148.823 102.799 148.136 103.229 147.8 103.907H147.732C147.408 103.208 146.837 102.799 145.976 102.799C145.124 102.799 144.493 103.208 144.22 103.907H144.135V102.884H143.163V109.429ZM156.577 109.566C157.907 109.566 158.879 108.901 159.185 107.912L158.214 107.64C157.958 108.321 157.366 108.662 156.577 108.662C155.397 108.662 154.583 107.9 154.536 106.498H159.288V106.071C159.288 103.634 157.839 102.799 156.475 102.799C154.702 102.799 153.526 104.196 153.526 106.208C153.526 108.219 154.685 109.566 156.577 109.566ZM154.536 105.628C154.604 104.61 155.325 103.702 156.475 103.702C157.566 103.702 158.265 104.52 158.265 105.628H154.536ZM167.519 102.884H166.121V101.316H165.116V102.884H164.127V103.736H165.116V107.827C165.116 108.969 166.036 109.515 166.888 109.515C167.263 109.515 167.502 109.446 167.638 109.395L167.434 108.492C167.349 108.509 167.212 108.543 166.991 108.543C166.547 108.543 166.121 108.407 166.121 107.554V103.736H167.519V102.884ZM170.418 105.492C170.418 104.35 171.147 103.702 172.14 103.702C173.086 103.702 173.657 104.299 173.657 105.339V109.429H174.662V105.27C174.662 103.587 173.768 102.799 172.43 102.799C171.398 102.799 170.81 103.229 170.503 103.907H170.418V100.702H169.412V109.429H170.418V105.492ZM179.487 109.566C180.816 109.566 181.788 108.901 182.095 107.912L181.123 107.64C180.867 108.321 180.275 108.662 179.487 108.662C178.306 108.662 177.492 107.9 177.445 106.498H182.197V106.071C182.197 103.634 180.748 102.799 179.384 102.799C177.612 102.799 176.436 104.196 176.436 106.208C176.436 108.219 177.595 109.566 179.487 109.566ZM177.445 105.628C177.514 104.61 178.234 103.702 179.384 103.702C180.475 103.702 181.174 104.52 181.174 105.628H177.445ZM183.967 109.429H184.972V105.287C184.972 104.401 185.671 103.753 186.626 103.753C186.894 103.753 187.171 103.804 187.239 103.821V102.799C187.124 102.79 186.86 102.782 186.711 102.782C185.927 102.782 185.245 103.225 185.006 103.873H184.938V102.884H183.967V109.429ZM191.217 109.566C192.546 109.566 193.518 108.901 193.825 107.912L192.853 107.64C192.597 108.321 192.005 108.662 191.217 108.662C190.036 108.662 189.222 107.9 189.175 106.498H193.927V106.071C193.927 103.634 192.478 102.799 191.114 102.799C189.342 102.799 188.166 104.196 188.166 106.208C188.166 108.219 189.325 109.566 191.217 109.566ZM189.175 105.628C189.244 104.61 189.964 103.702 191.114 103.702C192.205 103.702 192.904 104.52 192.904 105.628H189.175ZM200.317 105.492C200.317 104.35 201.025 103.702 201.988 103.702C202.921 103.702 203.488 104.312 203.488 105.339V109.429H204.494V105.27C204.494 103.6 203.603 102.799 202.278 102.799C201.289 102.799 200.675 103.242 200.369 103.907H200.283V102.884H199.312V109.429H200.317V105.492ZM209.23 109.566C211.003 109.566 212.196 108.219 212.196 106.191C212.196 104.145 211.003 102.799 209.23 102.799C207.458 102.799 206.264 104.145 206.264 106.191C206.264 108.219 207.458 109.566 209.23 109.566ZM209.23 108.662C207.884 108.662 207.27 107.503 207.27 106.191C207.27 104.878 207.884 103.702 209.23 103.702C210.577 103.702 211.191 104.878 211.191 106.191C211.191 107.503 210.577 108.662 209.23 108.662ZM215.232 109.429H216.22L217.652 104.401H217.754L219.186 109.429H220.175L222.169 102.884H221.112L219.698 107.878H219.629L218.249 102.884H217.175L215.777 107.895H215.709L214.294 102.884H213.237L215.232 109.429ZM225.068 100.702H223.909L223.994 106.975H224.983L225.068 100.702ZM224.489 109.498C224.911 109.498 225.256 109.152 225.256 108.731C225.256 108.309 224.911 107.964 224.489 107.964C224.067 107.964 223.722 108.309 223.722 108.731C223.722 109.152 224.067 109.498 224.489 109.498Z" fill="#0A2540"/>
<circle cx="16.7474" cy="99.3577" r="8.64189" fill="#3A86FF"/>
<circle cx="60.437" cy="86.8748" r="5.76126" fill="#3A86FF"/>
<circle cx="47.9505" cy="121.923" r="8.64189" fill="#3A86FF"/>
<circle cx="32.1072" cy="79.1934" r="2.88063" fill="#3A86FF"/>
<circle cx="19.1473" cy="68.1508" r="1.44032" fill="#3A86FF"/>
<circle cx="25.3598" cy="167.731" r="52.281" transform="rotate(-48.1512 25.3598 167.731)" fill="#3A86FF"/>
</g>
<g clip-path="url(#clip1)">
<path fill-rule="evenodd" clip-rule="evenodd" d="M57.2939 60.203C57.6946 59.8978 58.1592 59.6872 58.6486 59.5684C71.8806 56.3556 81.7054 44.4302 81.7054 30.2101C81.7054 13.5255 68.1799 0 51.4953 0C34.8107 0 21.2852 13.5255 21.2852 30.2101C21.2852 41.3974 27.3661 51.1644 36.4029 56.3861C37.0325 56.7498 37.5537 57.2799 37.8725 57.9334L42.1064 66.6129C43.0561 68.5597 45.5494 69.1513 47.2724 67.8385L57.2939 60.203Z" fill="#3A86FF"/>
<g clip-path="url(#clip2)">
<path d="M37.1992 29.7691L41.8776 34.3437L46.6744 29.6601L41.8776 34.3437C40.8628 26.4086 44.1872 22.475 44.1872 22.475C52.0963 12.9802 60.8141 20.4041 60.8141 20.4041" stroke="white" stroke-width="2.1" stroke-miterlimit="10" stroke-linecap="round" stroke-linejoin="round"/>
<path d="M66.4156 30.7153L61.7373 26.1406L56.9404 30.8242L61.7373 26.1406C62.7528 34.0757 59.4277 38.0093 59.4277 38.0093C51.5185 47.5042 42.8008 40.0802 42.8008 40.0802" stroke="white" stroke-width="2.1" stroke-miterlimit="10" stroke-linecap="round" stroke-linejoin="round"/>
</g>
</g>
<defs>
<clipPath id="clip0">
<rect x="1" y="29.5234" width="378" height="104.362" rx="12" fill="white"/>
</clipPath>
<clipPath id="clip1">
<rect width="68.6594" height="68.6594" fill="white" transform="translate(17.1641)"/>
</clipPath>
<clipPath id="clip2">
<rect width="31.5833" height="31.5833" fill="white" transform="translate(35.7031 14.4185)"/>
</clipPath>
</defs>
</svg>
