<svg width="379" height="134" viewBox="0 0 379 134" fill="none" xmlns="http://www.w3.org/2000/svg">
<g clip-path="url(#clip0)">
<rect x="1" y="29.5234" width="378" height="104.362" rx="12" fill="#F5F5F5"/>
<path d="M130.937 51.9826H127.006V66.8548H126.814L116.544 51.9826H113.007V73.8008H116.96V58.9393H117.141L127.422 73.8008H130.937V51.9826ZM141.268 74.1204C145.082 74.1204 147.702 72.256 148.384 69.4116L144.783 69.0067C144.261 70.3917 142.983 71.1161 141.321 71.1161C138.828 71.1161 137.177 69.4755 137.145 66.6737H148.544V65.4911C148.544 59.7489 145.092 57.2241 141.065 57.2241C136.378 57.2241 133.32 60.6651 133.32 65.7148C133.32 70.8498 136.335 74.1204 141.268 74.1204ZM137.155 64.0742C137.273 61.9862 138.817 60.2283 141.119 60.2283C143.334 60.2283 144.826 61.8477 144.847 64.0742H137.155ZM154.046 73.8008H158.073L161.141 62.7425H161.365L164.433 73.8008H168.449L173.083 57.4371H169.142L166.308 68.8789H166.148L163.208 57.4371H159.319L156.379 68.9428H156.23L153.353 57.4371H149.422L154.046 73.8008ZM188.681 73.8008C195.329 73.8008 199.271 69.6886 199.271 62.8704C199.271 56.0735 195.329 51.9826 188.831 51.9826H181.288V73.8008H188.681ZM185.24 70.381V55.4023H188.607C193.039 55.4023 195.35 57.8739 195.35 62.8704C195.35 67.8881 193.039 70.381 188.49 70.381H185.24ZM209.05 74.1204C212.864 74.1204 215.485 72.256 216.167 69.4116L212.566 69.0067C212.044 70.3917 210.765 71.1161 209.103 71.1161C206.61 71.1161 204.959 69.4755 204.927 66.6737H216.326V65.4911C216.326 59.7489 212.875 57.2241 208.848 57.2241C204.16 57.2241 201.103 60.6651 201.103 65.7148C201.103 70.8498 204.118 74.1204 209.05 74.1204ZM204.938 64.0742C205.055 61.9862 206.6 60.2283 208.901 60.2283C211.117 60.2283 212.608 61.8477 212.63 64.0742H204.938ZM231.472 61.7624C230.94 58.9925 228.724 57.2241 224.888 57.2241C220.947 57.2241 218.262 59.163 218.273 62.1886C218.262 64.5749 219.732 66.1516 222.875 66.8015L225.666 67.3874C227.168 67.7177 227.871 68.3249 227.871 69.2518C227.871 70.3704 226.657 71.212 224.824 71.212C223.056 71.212 221.905 70.445 221.575 68.9748L217.815 69.337C218.294 72.3413 220.819 74.1204 224.835 74.1204C228.926 74.1204 231.813 72.0004 231.824 68.9002C231.813 66.5671 230.311 65.1396 227.221 64.4684L224.43 63.8718C222.768 63.4989 222.108 62.9237 222.118 61.9755C222.108 60.8675 223.333 60.1005 224.942 60.1005C226.721 60.1005 227.658 61.07 227.957 62.146L231.472 61.7624ZM233.954 73.8008H237.81V57.4371H233.954V73.8008ZM235.893 55.1147C237.118 55.1147 238.119 54.1772 238.119 53.0266C238.119 51.8654 237.118 50.9279 235.893 50.9279C234.657 50.9279 233.656 51.8654 233.656 53.0266C233.656 54.1772 234.657 55.1147 235.893 55.1147ZM247.843 80.2781C252.264 80.2781 255.524 78.2539 255.524 74.0671V57.4371H251.72V60.1431H251.507C250.921 58.9606 249.696 57.2241 246.809 57.2241C243.027 57.2241 240.055 60.1857 240.055 65.5657C240.055 70.9031 243.027 73.5664 246.799 73.5664C249.6 73.5664 250.911 72.0643 251.507 70.8604H251.699V73.9606C251.699 76.3683 250.101 77.359 247.906 77.359C245.584 77.359 244.561 76.2617 244.093 75.3029L240.62 76.1445C241.323 78.435 243.677 80.2781 247.843 80.2781ZM247.875 70.5408C245.328 70.5408 243.986 68.5593 243.986 65.5444C243.986 62.5721 245.307 60.3881 247.875 60.3881C250.357 60.3881 251.72 62.4442 251.72 65.5444C251.72 68.6658 250.335 70.5408 247.875 70.5408ZM262.283 64.2127C262.283 61.8477 263.71 60.484 265.745 60.484C267.737 60.484 268.93 61.7944 268.93 63.9783V73.8008H272.787V63.3817C272.798 59.4613 270.56 57.2241 267.183 57.2241C264.733 57.2241 263.05 58.396 262.304 60.2177H262.112V57.4371H258.426V73.8008H262.283V64.2127ZM280.377 51.9826H276.254L276.595 67.3874H280.025L280.377 51.9826ZM278.31 74.0352C279.567 74.0352 280.643 72.9911 280.654 71.6914C280.643 70.413 279.567 69.369 278.31 69.369C277.01 69.369 275.956 70.413 275.966 71.6914C275.956 72.9911 277.01 74.0352 278.31 74.0352Z" fill="#0A2540"/>
<path d="M118.935 88.4294C118.611 86.6397 117.179 85.5829 115.424 85.5829C113.191 85.5829 111.571 87.3044 111.571 90.0658C111.571 92.8272 113.191 94.5488 115.424 94.5488C117.179 94.5488 118.611 93.4919 118.935 91.7022H117.878C117.623 92.9124 116.583 93.5601 115.424 93.5601C113.838 93.5601 112.594 92.3329 112.594 90.0658C112.594 87.7988 113.838 86.5715 115.424 86.5715C116.583 86.5715 117.623 87.2192 117.878 88.4294H118.935ZM121.752 90.4919C121.752 89.3499 122.481 88.7022 123.474 88.7022C124.42 88.7022 124.991 89.2988 124.991 90.3385V94.4294H125.996V90.2704C125.996 88.5871 125.102 87.7988 123.763 87.7988C122.732 87.7988 122.144 88.2292 121.837 88.9067H121.752V85.7022H120.746V94.4294H121.752V90.4919ZM130.821 94.5658C132.15 94.5658 133.122 93.901 133.429 92.9124L132.457 92.6397C132.201 93.3215 131.609 93.6624 130.821 93.6624C129.64 93.6624 128.826 92.8996 128.779 91.4976H133.531V91.0715C133.531 88.634 132.082 87.7988 130.718 87.7988C128.946 87.7988 127.769 89.1965 127.769 91.2079C127.769 93.2192 128.929 94.5658 130.821 94.5658ZM128.779 90.6283C128.848 89.6098 129.568 88.7022 130.718 88.7022C131.809 88.7022 132.508 89.5204 132.508 90.6283H128.779ZM137.96 94.5658C139.409 94.5658 140.363 93.6794 140.534 92.5204H139.528C139.34 93.2363 138.744 93.6624 137.96 93.6624C136.767 93.6624 135.999 92.6738 135.999 91.1567C135.999 89.6738 136.784 88.7022 137.96 88.7022C138.846 88.7022 139.374 89.2476 139.528 89.8442H140.534C140.363 88.6169 139.323 87.7988 137.943 87.7988C136.17 87.7988 134.994 89.1965 134.994 91.1908C134.994 93.151 136.119 94.5658 137.96 94.5658ZM142.244 94.4294H143.249V91.9792L143.953 91.3272L146.403 94.4294H147.681L144.711 90.6794L147.477 87.884H146.232L143.369 90.7988H143.249V85.7022H142.244V94.4294ZM155.473 87.884H154.075V86.3158H153.069V87.884H152.081V88.7363H153.069V92.8272C153.069 93.9692 153.99 94.5147 154.842 94.5147C155.217 94.5147 155.456 94.4465 155.592 94.3954L155.387 93.4919C155.302 93.509 155.166 93.5431 154.944 93.5431C154.501 93.5431 154.075 93.4067 154.075 92.5544V88.7363H155.473V87.884ZM158.372 90.4919C158.372 89.3499 159.1 88.7022 160.093 88.7022C161.039 88.7022 161.61 89.2988 161.61 90.3385V94.4294H162.616V90.2704C162.616 88.5871 161.721 87.7988 160.383 87.7988C159.352 87.7988 158.764 88.2292 158.457 88.9067H158.372V85.7022H157.366V94.4294H158.372V90.4919ZM167.44 94.5658C168.77 94.5658 169.741 93.901 170.048 92.9124L169.077 92.6397C168.821 93.3215 168.229 93.6624 167.44 93.6624C166.26 93.6624 165.446 92.8996 165.399 91.4976H170.15V91.0715C170.15 88.634 168.702 87.7988 167.338 87.7988C165.565 87.7988 164.389 89.1965 164.389 91.2079C164.389 93.2192 165.548 94.5658 167.44 94.5658ZM165.399 90.6283C165.467 89.6098 166.187 88.7022 167.338 88.7022C168.429 88.7022 169.128 89.5204 169.128 90.6283H165.399ZM176.541 90.4919C176.541 89.3499 177.248 88.7022 178.211 88.7022C179.145 88.7022 179.711 89.3115 179.711 90.3385V94.4294H180.717V90.2704C180.717 88.5999 179.826 87.7988 178.501 87.7988C177.513 87.7988 176.899 88.2419 176.592 88.9067H176.507V87.884H175.535V94.4294H176.541V90.4919ZM185.539 94.5658C186.869 94.5658 187.84 93.901 188.147 92.9124L187.176 92.6397C186.92 93.3215 186.327 93.6624 185.539 93.6624C184.359 93.6624 183.545 92.8996 183.498 91.4976H188.249V91.0715C188.249 88.634 186.801 87.7988 185.437 87.7988C183.664 87.7988 182.488 89.1965 182.488 91.2079C182.488 93.2192 183.647 94.5658 185.539 94.5658ZM183.498 90.6283C183.566 89.6098 184.286 88.7022 185.437 88.7022C186.528 88.7022 187.227 89.5204 187.227 90.6283H183.498ZM191.502 94.4294H192.491L193.923 89.401H194.025L195.457 94.4294H196.445L198.44 87.884H197.383L195.968 92.8783H195.9L194.519 87.884H193.445L192.048 92.8954H191.979L190.565 87.884H189.508L191.502 94.4294ZM206.471 87.884H205.073V86.3158H204.067V87.884H203.079V88.7363H204.067V92.8272C204.067 93.9692 204.988 94.5147 205.84 94.5147C206.215 94.5147 206.454 94.4465 206.59 94.3954L206.386 93.4919C206.3 93.509 206.164 93.5431 205.942 93.5431C205.499 93.5431 205.073 93.4067 205.073 92.5544V88.7363H206.471V87.884ZM208.224 94.4294H209.229V90.2874C209.229 89.401 209.928 88.7533 210.883 88.7533C211.151 88.7533 211.428 88.8044 211.496 88.8215V87.7988C211.381 87.7902 211.117 87.7817 210.968 87.7817C210.184 87.7817 209.502 88.2249 209.263 88.8726H209.195V87.884H208.224V94.4294ZM214.855 94.5829C215.997 94.5829 216.593 93.9692 216.798 93.5431H216.849V94.4294H217.855V90.1169C217.855 88.0374 216.269 87.7988 215.434 87.7988C214.445 87.7988 213.32 88.1397 212.809 89.3329L213.764 89.6738C213.985 89.1965 214.509 88.6851 215.468 88.6851C216.393 88.6851 216.849 89.1752 216.849 90.0147V90.0488C216.849 90.5346 216.355 90.4919 215.161 90.6454C213.947 90.803 212.622 91.0715 212.622 92.5715C212.622 93.8499 213.61 94.5829 214.855 94.5829ZM215.008 93.6794C214.207 93.6794 213.627 93.3215 213.627 92.6226C213.627 91.8556 214.326 91.6169 215.11 91.5147C215.536 91.4635 216.678 91.3442 216.849 91.1397V92.0601C216.849 92.8783 216.201 93.6794 215.008 93.6794ZM222.402 94.5658C223.663 94.5658 224.089 93.7817 224.311 93.4238H224.43V94.4294H225.402V85.7022H224.396V88.9238H224.311C224.089 88.5829 223.697 87.7988 222.419 87.7988C220.765 87.7988 219.623 89.1113 219.623 91.1738C219.623 93.2533 220.765 94.5658 222.402 94.5658ZM222.538 93.6624C221.277 93.6624 220.629 92.5544 220.629 91.1567C220.629 89.776 221.26 88.7022 222.538 88.7022C223.765 88.7022 224.413 89.6908 224.413 91.1567C224.413 92.6397 223.748 93.6624 222.538 93.6624ZM227.623 94.4294H228.629V87.884H227.623V94.4294ZM228.135 86.7931C228.527 86.7931 228.851 86.4863 228.851 86.1113C228.851 85.7363 228.527 85.4294 228.135 85.4294C227.743 85.4294 227.419 85.7363 227.419 86.1113C227.419 86.4863 227.743 86.7931 228.135 86.7931ZM231.717 90.4919C231.717 89.3499 232.424 88.7022 233.387 88.7022C234.32 88.7022 234.887 89.3115 234.887 90.3385V94.4294H235.893V90.2704C235.893 88.5999 235.002 87.7988 233.677 87.7988C232.688 87.7988 232.075 88.2419 231.768 88.9067H231.683V87.884H230.711V94.4294H231.717V90.4919ZM240.613 97.0204C242.181 97.0204 243.442 96.3044 243.442 94.6169V87.884H242.47V88.9238H242.368C242.147 88.5829 241.738 87.7988 240.459 87.7988C238.806 87.7988 237.664 89.1113 237.664 91.1226C237.664 93.1681 238.857 94.3272 240.442 94.3272C241.72 94.3272 242.13 93.5772 242.351 93.2192H242.436V94.5488C242.436 95.6397 241.669 96.134 240.613 96.134C239.424 96.134 239.006 95.5076 238.738 95.1454L237.936 95.7079C238.345 96.3939 239.151 97.0204 240.613 97.0204ZM240.578 93.4238C239.317 93.4238 238.669 92.4692 238.669 91.1056C238.669 89.776 239.3 88.7022 240.578 88.7022C241.806 88.7022 242.453 89.6908 242.453 91.1056C242.453 92.5544 241.789 93.4238 240.578 93.4238ZM249.138 94.4294H250.144V87.884H249.138V94.4294ZM249.649 86.7931C250.041 86.7931 250.365 86.4863 250.365 86.1113C250.365 85.7363 250.041 85.4294 249.649 85.4294C249.257 85.4294 248.933 85.7363 248.933 86.1113C248.933 86.4863 249.257 86.7931 249.649 86.7931ZM253.231 90.4919C253.231 89.3499 253.939 88.7022 254.902 88.7022C255.835 88.7022 256.402 89.3115 256.402 90.3385V94.4294H257.407V90.2704C257.407 88.5999 256.517 87.7988 255.192 87.7988C254.203 87.7988 253.589 88.2419 253.282 88.9067H253.197V87.884H252.226V94.4294H253.231V90.4919ZM262.332 87.884H260.934V86.3158H259.928V87.884H258.94V88.7363H259.928V92.8272C259.928 93.9692 260.849 94.5147 261.701 94.5147C262.076 94.5147 262.315 94.4465 262.451 94.3954L262.247 93.4919C262.161 93.509 262.025 93.5431 261.803 93.5431C261.36 93.5431 260.934 93.4067 260.934 92.5544V88.7363H262.332V87.884ZM266.759 94.5658C268.088 94.5658 269.06 93.901 269.366 92.9124L268.395 92.6397C268.139 93.3215 267.547 93.6624 266.759 93.6624C265.578 93.6624 264.764 92.8996 264.717 91.4976H269.469V91.0715C269.469 88.634 268.02 87.7988 266.656 87.7988C264.884 87.7988 263.707 89.1965 263.707 91.2079C263.707 93.2192 264.866 94.5658 266.759 94.5658ZM264.717 90.6283C264.786 89.6098 265.506 88.7022 266.656 88.7022C267.747 88.7022 268.446 89.5204 268.446 90.6283H264.717ZM271.239 94.4294H272.244V90.2874C272.244 89.401 272.943 88.7533 273.898 88.7533C274.166 88.7533 274.443 88.8044 274.511 88.8215V87.7988C274.396 87.7902 274.132 87.7817 273.983 87.7817C273.199 87.7817 272.517 88.2249 272.278 88.8726H272.21V87.884H271.239V94.4294ZM279.268 87.884H277.802V87.2192C277.802 86.5715 278.075 86.2306 278.74 86.2306C279.03 86.2306 279.2 86.2988 279.302 86.3329L279.592 85.4635C279.439 85.3954 279.132 85.2931 278.638 85.2931C277.7 85.2931 276.797 85.8556 276.797 86.9806V87.884H275.74V88.7363H276.797V94.4294H277.802V88.7363H279.268V87.884ZM282.656 94.5829C283.798 94.5829 284.395 93.9692 284.6 93.5431H284.651V94.4294H285.656V90.1169C285.656 88.0374 284.071 87.7988 283.236 87.7988C282.247 87.7988 281.122 88.1397 280.611 89.3329L281.566 89.6738C281.787 89.1965 282.311 88.6851 283.27 88.6851C284.195 88.6851 284.651 89.1752 284.651 90.0147V90.0488C284.651 90.5346 284.156 90.4919 282.963 90.6454C281.749 90.803 280.423 91.0715 280.423 92.5715C280.423 93.8499 281.412 94.5829 282.656 94.5829ZM282.81 93.6794C282.009 93.6794 281.429 93.3215 281.429 92.6226C281.429 91.8556 282.128 91.6169 282.912 91.5147C283.338 91.4635 284.48 91.3442 284.651 91.1397V92.0601C284.651 92.8783 284.003 93.6794 282.81 93.6794ZM290.391 94.5658C291.84 94.5658 292.795 93.6794 292.965 92.5204H291.959C291.772 93.2363 291.175 93.6624 290.391 93.6624C289.198 93.6624 288.431 92.6738 288.431 91.1567C288.431 89.6738 289.215 88.7022 290.391 88.7022C291.277 88.7022 291.806 89.2476 291.959 89.8442H292.965C292.795 88.6169 291.755 87.7988 290.374 87.7988C288.601 87.7988 287.425 89.1965 287.425 91.1908C287.425 93.151 288.55 94.5658 290.391 94.5658ZM297.419 94.5658C298.749 94.5658 299.721 93.901 300.027 92.9124L299.056 92.6397C298.8 93.3215 298.208 93.6624 297.419 93.6624C296.239 93.6624 295.425 92.8996 295.378 91.4976H300.13V91.0715C300.13 88.634 298.681 87.7988 297.317 87.7988C295.544 87.7988 294.368 89.1965 294.368 91.2079C294.368 93.2192 295.527 94.5658 297.419 94.5658ZM295.378 90.6283C295.446 89.6098 296.167 88.7022 297.317 88.7022C298.408 88.7022 299.107 89.5204 299.107 90.6283H295.378ZM302.632 94.4976C303.054 94.4976 303.4 94.1525 303.4 93.7306C303.4 93.3087 303.054 92.9635 302.632 92.9635C302.211 92.9635 301.865 93.3087 301.865 93.7306C301.865 94.1525 302.211 94.4976 302.632 94.4976ZM111.435 101.64H114.179V109.429H115.236V101.64H117.98V100.702H111.435V101.64ZM120.751 109.583C121.893 109.583 122.489 108.969 122.694 108.543H122.745V109.429H123.751V105.117C123.751 103.037 122.165 102.799 121.33 102.799C120.342 102.799 119.217 103.14 118.705 104.333L119.66 104.674C119.881 104.196 120.405 103.685 121.364 103.685C122.289 103.685 122.745 104.175 122.745 105.015V105.049C122.745 105.535 122.251 105.492 121.057 105.645C119.843 105.803 118.518 106.071 118.518 107.571C118.518 108.85 119.506 109.583 120.751 109.583ZM120.904 108.679C120.103 108.679 119.523 108.321 119.523 107.623C119.523 106.856 120.222 106.617 121.006 106.515C121.432 106.464 122.575 106.344 122.745 106.14V107.06C122.745 107.878 122.097 108.679 120.904 108.679ZM125.826 109.429H126.832V106.979L127.535 106.327L129.985 109.429H131.264L128.294 105.679L131.059 102.884H129.815L126.951 105.799H126.832V100.702H125.826V109.429ZM135.068 109.566C136.398 109.566 137.37 108.901 137.676 107.912L136.705 107.64C136.449 108.321 135.857 108.662 135.068 108.662C133.888 108.662 133.074 107.9 133.027 106.498H137.779V106.071C137.779 103.634 136.33 102.799 134.966 102.799C133.193 102.799 132.017 104.196 132.017 106.208C132.017 108.219 133.176 109.566 135.068 109.566ZM133.027 105.628C133.095 104.61 133.816 103.702 134.966 103.702C136.057 103.702 136.756 104.52 136.756 105.628H133.027ZM143.3 100.702V109.429H144.288V102.799H144.374L147.101 109.429H148.055L150.783 102.799H150.868V109.429H151.857V100.702H150.595L147.629 107.946H147.527L144.561 100.702H143.3ZM156.824 109.566C158.153 109.566 159.125 108.901 159.431 107.912L158.46 107.64C158.204 108.321 157.612 108.662 156.824 108.662C155.643 108.662 154.829 107.9 154.782 106.498H159.534V106.071C159.534 103.634 158.085 102.799 156.721 102.799C154.949 102.799 153.772 104.196 153.772 106.208C153.772 108.219 154.931 109.566 156.824 109.566ZM154.782 105.628C154.851 104.61 155.571 103.702 156.721 103.702C157.812 103.702 158.511 104.52 158.511 105.628H154.782ZM171.975 100.702H170.936V107.571H170.85L166.078 100.702H165.055V109.429H166.112V102.577H166.197L170.953 109.429H171.975V100.702ZM176.853 109.566C178.626 109.566 179.819 108.219 179.819 106.191C179.819 104.145 178.626 102.799 176.853 102.799C175.08 102.799 173.887 104.145 173.887 106.191C173.887 108.219 175.08 109.566 176.853 109.566ZM176.853 108.662C175.506 108.662 174.893 107.503 174.893 106.191C174.893 104.878 175.506 103.702 176.853 103.702C178.199 103.702 178.813 104.878 178.813 106.191C178.813 107.503 178.199 108.662 176.853 108.662ZM182.854 109.429H183.843L185.275 104.401H185.377L186.809 109.429H187.797L189.792 102.884H188.735L187.32 107.878H187.252L185.871 102.884H184.797L183.4 107.895H183.331L181.917 102.884H180.86L182.854 109.429ZM192.691 100.702H191.532L191.617 106.975H192.606L192.691 100.702ZM192.111 109.498C192.533 109.498 192.878 109.152 192.878 108.731C192.878 108.309 192.533 107.964 192.111 107.964C191.689 107.964 191.344 108.309 191.344 108.731C191.344 109.152 191.689 109.498 192.111 109.498Z" fill="#0A2540"/>
<path d="M110.855 111.816H193.782V112.634H110.855V111.816Z" fill="#0A2540"/>
<circle cx="16.7474" cy="99.3577" r="8.64189" fill="#3A86FF"/>
<circle cx="60.437" cy="86.8748" r="5.76126" fill="#3A86FF"/>
<circle cx="47.9505" cy="121.923" r="8.64189" fill="#3A86FF"/>
<circle cx="32.1072" cy="79.1934" r="2.88063" fill="#3A86FF"/>
<circle cx="19.1473" cy="68.1508" r="1.44032" fill="#3A86FF"/>
<circle cx="25.3598" cy="167.731" r="52.281" transform="rotate(-48.1512 25.3598 167.731)" fill="#3A86FF"/>
</g>
<g clip-path="url(#clip1)">
<path fill-rule="evenodd" clip-rule="evenodd" d="M57.2939 60.203C57.6946 59.8978 58.1592 59.6872 58.6486 59.5684C71.8806 56.3556 81.7054 44.4302 81.7054 30.2101C81.7054 13.5255 68.1799 0 51.4953 0C34.8107 0 21.2852 13.5255 21.2852 30.2101C21.2852 41.3974 27.3661 51.1644 36.4029 56.3861C37.0325 56.7498 37.5537 57.2799 37.8725 57.9334L42.1064 66.6129C43.0561 68.5597 45.5494 69.1513 47.2724 67.8385L57.2939 60.203Z" fill="#3A86FF"/>
<g clip-path="url(#clip2)">
<path d="M37.1992 29.7691L41.8776 34.3437L46.6744 29.6601L41.8776 34.3437C40.8628 26.4086 44.1872 22.475 44.1872 22.475C52.0963 12.9802 60.8141 20.4041 60.8141 20.4041" stroke="white" stroke-width="2.1" stroke-miterlimit="10" stroke-linecap="round" stroke-linejoin="round"/>
<path d="M66.4156 30.7153L61.7373 26.1406L56.9404 30.8242L61.7373 26.1406C62.7528 34.0757 59.4277 38.0093 59.4277 38.0093C51.5185 47.5042 42.8008 40.0802 42.8008 40.0802" stroke="white" stroke-width="2.1" stroke-miterlimit="10" stroke-linecap="round" stroke-linejoin="round"/>
</g>
</g>
<defs>
<clipPath id="clip0">
<rect x="1" y="29.5234" width="378" height="104.362" rx="12" fill="white"/>
</clipPath>
<clipPath id="clip1">
<rect width="68.6594" height="68.6594" fill="white" transform="translate(17.1641)"/>
</clipPath>
<clipPath id="clip2">
<rect width="31.5833" height="31.5833" fill="white" transform="translate(35.7031 14.4185)"/>
</clipPath>
</defs>
</svg>
