<svg width="379" height="134" viewBox="0 0 379 134" fill="none" xmlns="http://www.w3.org/2000/svg">
<g clip-path="url(#clip0)">
<rect x="1" y="29.5234" width="378" height="104.362" rx="12" fill="#F5F5F5"/>
<path d="M126.921 54.3462H123.776V66.244H123.623L115.407 54.3462H112.577V71.8008H115.739V59.9116H115.884L124.108 71.8008H126.921V54.3462ZM135.185 72.0565C138.236 72.0565 140.333 70.565 140.878 68.2894L137.998 67.9656C137.58 69.0735 136.557 69.6531 135.228 69.6531C133.234 69.6531 131.912 68.3406 131.887 66.0991H141.006V65.1531C141.006 60.5593 138.245 58.5394 135.023 58.5394C131.273 58.5394 128.827 61.2923 128.827 65.332C128.827 69.44 131.239 72.0565 135.185 72.0565ZM131.895 64.0195C131.989 62.3491 133.225 60.9428 135.066 60.9428C136.839 60.9428 138.032 62.2383 138.049 64.0195H131.895ZM145.408 71.8008H148.629L151.084 62.9542H151.263L153.717 71.8008H156.93L160.638 58.7099H157.484L155.217 67.8633H155.09L152.737 58.7099H149.626L147.274 67.9144H147.155L144.854 58.7099H141.709L145.408 71.8008ZM169.443 71.8008L170.883 67.4968H177.446L178.895 71.8008H182.27L176.116 54.3462H172.213L166.068 71.8008H169.443ZM171.736 64.957L174.096 57.9258H174.233L176.593 64.957H171.736ZM183.592 76.7099H186.677V69.7383H186.805C187.291 70.6928 188.305 72.0309 190.555 72.0309C193.641 72.0309 195.95 69.5849 195.95 65.2724C195.95 60.9087 193.572 58.5394 190.547 58.5394C188.237 58.5394 187.274 59.9286 186.805 60.8746H186.626V58.7099H183.592V76.7099ZM186.618 65.2553C186.618 62.7156 187.709 61.0707 189.695 61.0707C191.749 61.0707 192.805 62.8178 192.805 65.2553C192.805 67.7099 191.731 69.4996 189.695 69.4996C187.726 69.4996 186.618 67.7951 186.618 65.2553ZM197.752 76.7099H200.837V69.7383H200.965C201.451 70.6928 202.465 72.0309 204.715 72.0309C207.801 72.0309 210.11 69.5849 210.11 65.2724C210.11 60.9087 207.732 58.5394 204.707 58.5394C202.397 58.5394 201.434 59.9286 200.965 60.8746H200.786V58.7099H197.752V76.7099ZM200.778 65.2553C200.778 62.7156 201.869 61.0707 203.855 61.0707C205.909 61.0707 206.965 62.8178 206.965 65.2553C206.965 67.7099 205.891 69.4996 203.855 69.4996C201.886 69.4996 200.778 67.7951 200.778 65.2553ZM217.025 71.8008H220.111V58.7099H217.025V71.8008ZM218.577 56.8519C219.557 56.8519 220.358 56.1019 220.358 55.1815C220.358 54.2525 219.557 53.5025 218.577 53.5025C217.588 53.5025 216.787 54.2525 216.787 55.1815C216.787 56.1019 217.588 56.8519 218.577 56.8519ZM225.528 64.1303C225.528 62.2383 226.67 61.1474 228.298 61.1474C229.892 61.1474 230.847 62.1957 230.847 63.9428V71.8008H233.932V63.4656C233.94 60.3292 232.151 58.5394 229.449 58.5394C227.489 58.5394 226.142 59.4769 225.545 60.9343H225.392V58.7099H222.443V71.8008H225.528V64.1303ZM241.478 71.8008H248.543C252.54 71.8008 254.5 69.7638 254.5 67.0451C254.5 64.4031 252.625 62.8519 250.767 62.7582V62.5877C252.472 62.1871 253.819 60.994 253.819 58.8718C253.819 56.2724 251.944 54.3462 248.159 54.3462H241.478V71.8008ZM244.64 69.1587V64.0451H248.125C250.077 64.0451 251.287 65.2383 251.287 66.7979C251.287 68.1871 250.333 69.1587 248.04 69.1587H244.64ZM244.64 61.7695V56.9542H247.836C249.694 56.9542 250.657 57.9343 250.657 59.2809C250.657 60.815 249.412 61.7695 247.767 61.7695H244.64ZM262.07 72.0565C265.121 72.0565 267.218 70.565 267.763 68.2894L264.883 67.9656C264.465 69.0735 263.442 69.6531 262.113 69.6531C260.119 69.6531 258.797 68.3406 258.772 66.0991H267.891V65.1531C267.891 60.5593 265.13 58.5394 261.908 58.5394C258.158 58.5394 255.712 61.2923 255.712 65.332C255.712 69.44 258.124 72.0565 262.07 72.0565ZM258.78 64.0195C258.874 62.3491 260.11 60.9428 261.951 60.9428C263.724 60.9428 264.917 62.2383 264.934 64.0195H258.78ZM276.198 58.7099H273.616V55.5735H270.531V58.7099H268.673V61.0962H270.531V68.3746C270.514 70.8377 272.303 72.0479 274.622 71.9798C275.499 71.9542 276.105 71.7837 276.437 71.6729L275.917 69.261C275.747 69.3036 275.397 69.3803 275.014 69.3803C274.238 69.3803 273.616 69.1076 273.616 67.8633V61.0962H276.198V58.7099ZM281.706 72.065C283.76 72.065 284.987 71.1019 285.549 70.0025H285.652V71.8008H288.617V63.0394C288.617 59.5792 285.796 58.5394 283.299 58.5394C280.546 58.5394 278.433 59.7667 277.751 62.1531L280.632 62.5621C280.939 61.6673 281.808 60.9002 283.316 60.9002C284.748 60.9002 285.532 61.6332 285.532 62.9201V62.9712C285.532 63.8576 284.603 63.9002 282.294 64.1474C279.754 64.4201 277.325 65.1786 277.325 68.1275C277.325 70.7013 279.208 72.065 281.706 72.065ZM282.507 69.7979C281.22 69.7979 280.299 69.2099 280.299 68.0763C280.299 66.8917 281.331 66.3974 282.711 66.2013C283.521 66.0906 285.14 65.886 285.541 65.5621V67.1048C285.541 68.5621 284.365 69.7979 282.507 69.7979ZM294.655 54.3462H291.357L291.63 66.6701H294.374L294.655 54.3462ZM293.002 71.9883C294.008 71.9883 294.868 71.1531 294.877 70.1133C294.868 69.0906 294.008 68.2553 293.002 68.2553C291.962 68.2553 291.118 69.0906 291.127 70.1133C291.118 71.1531 291.962 71.9883 293.002 71.9883Z" fill="#0A2540"/>
<path d="M118.935 88.4294C118.611 86.6397 117.179 85.5829 115.424 85.5829C113.191 85.5829 111.571 87.3044 111.571 90.0658C111.571 92.8272 113.191 94.5488 115.424 94.5488C117.179 94.5488 118.611 93.4919 118.935 91.7022H117.878C117.623 92.9124 116.583 93.5601 115.424 93.5601C113.838 93.5601 112.594 92.3329 112.594 90.0658C112.594 87.7988 113.838 86.5715 115.424 86.5715C116.583 86.5715 117.623 87.2192 117.878 88.4294H118.935ZM121.752 90.4919C121.752 89.3499 122.481 88.7022 123.474 88.7022C124.42 88.7022 124.991 89.2988 124.991 90.3385V94.4294H125.996V90.2704C125.996 88.5871 125.102 87.7988 123.763 87.7988C122.732 87.7988 122.144 88.2292 121.837 88.9067H121.752V85.7022H120.746V94.4294H121.752V90.4919ZM130.821 94.5658C132.15 94.5658 133.122 93.901 133.429 92.9124L132.457 92.6397C132.201 93.3215 131.609 93.6624 130.821 93.6624C129.64 93.6624 128.826 92.8996 128.779 91.4976H133.531V91.0715C133.531 88.634 132.082 87.7988 130.718 87.7988C128.946 87.7988 127.769 89.1965 127.769 91.2079C127.769 93.2192 128.929 94.5658 130.821 94.5658ZM128.779 90.6283C128.848 89.6098 129.568 88.7022 130.718 88.7022C131.809 88.7022 132.508 89.5204 132.508 90.6283H128.779ZM137.96 94.5658C139.409 94.5658 140.363 93.6794 140.534 92.5204H139.528C139.34 93.2363 138.744 93.6624 137.96 93.6624C136.767 93.6624 135.999 92.6738 135.999 91.1567C135.999 89.6738 136.784 88.7022 137.96 88.7022C138.846 88.7022 139.374 89.2476 139.528 89.8442H140.534C140.363 88.6169 139.323 87.7988 137.943 87.7988C136.17 87.7988 134.994 89.1965 134.994 91.1908C134.994 93.151 136.119 94.5658 137.96 94.5658ZM142.244 94.4294H143.249V91.9792L143.953 91.3272L146.403 94.4294H147.681L144.711 90.6794L147.477 87.884H146.232L143.369 90.7988H143.249V85.7022H142.244V94.4294ZM155.285 94.5658C157.058 94.5658 158.251 93.2192 158.251 91.1908C158.251 89.1454 157.058 87.7988 155.285 87.7988C153.512 87.7988 152.319 89.1454 152.319 91.1908C152.319 93.2192 153.512 94.5658 155.285 94.5658ZM155.285 93.6624C153.939 93.6624 153.325 92.5033 153.325 91.1908C153.325 89.8783 153.939 88.7022 155.285 88.7022C156.632 88.7022 157.245 89.8783 157.245 91.1908C157.245 92.5033 156.632 93.6624 155.285 93.6624ZM164.151 91.7533C164.151 92.9806 163.214 93.5431 162.464 93.5431C161.629 93.5431 161.032 92.9294 161.032 91.9749V87.884H160.026V92.0431C160.026 93.7135 160.913 94.5147 162.14 94.5147C163.129 94.5147 163.776 93.9863 164.083 93.3215H164.151V94.4294H165.157V87.884H164.151V91.7533ZM170.085 87.884H168.688V86.3158H167.682V87.884H166.693V88.7363H167.682V92.8272C167.682 93.9692 168.603 94.5147 169.455 94.5147C169.83 94.5147 170.068 94.4465 170.205 94.3954L170 93.4919C169.915 93.509 169.779 93.5431 169.557 93.5431C169.114 93.5431 168.688 93.4067 168.688 92.5544V88.7363H170.085V87.884ZM178.112 94.5658C179.885 94.5658 181.078 93.2192 181.078 91.1908C181.078 89.1454 179.885 87.7988 178.112 87.7988C176.34 87.7988 175.146 89.1454 175.146 91.1908C175.146 93.2192 176.34 94.5658 178.112 94.5658ZM178.112 93.6624C176.766 93.6624 176.152 92.5033 176.152 91.1908C176.152 89.8783 176.766 88.7022 178.112 88.7022C179.459 88.7022 180.073 89.8783 180.073 91.1908C180.073 92.5033 179.459 93.6624 178.112 93.6624ZM186.978 91.7533C186.978 92.9806 186.041 93.5431 185.291 93.5431C184.456 93.5431 183.859 92.9294 183.859 91.9749V87.884H182.853V92.0431C182.853 93.7135 183.74 94.5147 184.967 94.5147C185.956 94.5147 186.603 93.9863 186.91 93.3215H186.978V94.4294H187.984V87.884H186.978V91.7533ZM190.066 94.4294H191.072V90.2874C191.072 89.401 191.771 88.7533 192.725 88.7533C192.994 88.7533 193.271 88.8044 193.339 88.8215V87.7988C193.224 87.7902 192.96 87.7817 192.81 87.7817C192.026 87.7817 191.344 88.2249 191.106 88.8726H191.038V87.884H190.066V94.4294ZM199.392 90.4919C199.392 89.3499 200.099 88.7022 201.062 88.7022C201.995 88.7022 202.562 89.3115 202.562 90.3385V94.4294H203.568V90.2704C203.568 88.5999 202.677 87.7988 201.352 87.7988C200.363 87.7988 199.75 88.2419 199.443 88.9067H199.358V87.884H198.386V94.4294H199.392V90.4919ZM208.39 94.5658C209.719 94.5658 210.691 93.901 210.998 92.9124L210.026 92.6397C209.77 93.3215 209.178 93.6624 208.39 93.6624C207.209 93.6624 206.395 92.8996 206.349 91.4976H211.1V91.0715C211.1 88.634 209.651 87.7988 208.287 87.7988C206.515 87.7988 205.339 89.1965 205.339 91.2079C205.339 93.2192 206.498 94.5658 208.39 94.5658ZM206.349 90.6283C206.417 89.6098 207.137 88.7022 208.287 88.7022C209.378 88.7022 210.077 89.5204 210.077 90.6283H206.349ZM214.353 94.4294H215.341L216.773 89.401H216.876L218.307 94.4294H219.296L221.29 87.884H220.233L218.819 92.8783H218.751L217.37 87.884H216.296L214.898 92.8954H214.83L213.415 87.884H212.358L214.353 94.4294ZM223.469 93.2363H222.378L222.327 93.7135C222.204 94.8684 221.961 96.0189 221.85 96.5601H222.617C222.821 95.9806 223.256 94.6681 223.401 93.6965L223.469 93.2363ZM232.102 87.884H230.636V87.2192C230.636 86.5715 230.909 86.2306 231.574 86.2306C231.864 86.2306 232.034 86.2988 232.136 86.3329L232.426 85.4635C232.273 85.3954 231.966 85.2931 231.472 85.2931C230.534 85.2931 229.631 85.8556 229.631 86.9806V87.884H228.574V88.7363H229.631V94.4294H230.636V88.7363H232.102V87.884ZM235.49 94.5829C236.632 94.5829 237.229 93.9692 237.434 93.5431H237.485V94.4294H238.49V90.1169C238.49 88.0374 236.905 87.7988 236.07 87.7988C235.081 87.7988 233.956 88.1397 233.445 89.3329L234.399 89.6738C234.621 89.1965 235.145 88.6851 236.104 88.6851C237.029 88.6851 237.485 89.1752 237.485 90.0147V90.0488C237.485 90.5346 236.99 90.4919 235.797 90.6454C234.583 90.803 233.257 91.0715 233.257 92.5715C233.257 93.8499 234.246 94.5829 235.49 94.5829ZM235.644 93.6794C234.843 93.6794 234.263 93.3215 234.263 92.6226C234.263 91.8556 234.962 91.6169 235.746 91.5147C236.172 91.4635 237.314 91.3442 237.485 91.1397V92.0601C237.485 92.8783 236.837 93.6794 235.644 93.6794ZM245.202 89.3499C244.887 88.4209 244.18 87.7988 242.884 87.7988C241.503 87.7988 240.481 88.5829 240.481 89.6908C240.481 90.5942 241.018 91.1993 242.219 91.4806L243.31 91.7363C243.971 91.8897 244.282 92.205 244.282 92.6567C244.282 93.2192 243.685 93.6794 242.748 93.6794C241.925 93.6794 241.41 93.3258 241.231 92.6226L240.276 92.8613C240.511 93.9735 241.427 94.5658 242.765 94.5658C244.286 94.5658 245.322 93.7348 245.322 92.6056C245.322 91.6936 244.751 91.1184 243.583 90.8329L242.611 90.5942C241.836 90.4025 241.486 90.1425 241.486 89.6397C241.486 89.0772 242.083 88.6681 242.884 88.6681C243.762 88.6681 244.124 89.1539 244.299 89.6056L245.202 89.3499ZM249.922 87.884H248.524V86.3158H247.519V87.884H246.53V88.7363H247.519V92.8272C247.519 93.9692 248.439 94.5147 249.291 94.5147C249.666 94.5147 249.905 94.4465 250.041 94.3954L249.837 93.4919C249.752 93.509 249.615 93.5431 249.394 93.5431C248.95 93.5431 248.524 93.4067 248.524 92.5544V88.7363H249.922V87.884ZM254.349 94.5658C255.678 94.5658 256.65 93.901 256.957 92.9124L255.985 92.6397C255.73 93.3215 255.137 93.6624 254.349 93.6624C253.168 93.6624 252.355 92.8996 252.308 91.4976H257.059V91.0715C257.059 88.634 255.61 87.7988 254.247 87.7988C252.474 87.7988 251.298 89.1965 251.298 91.2079C251.298 93.2192 252.457 94.5658 254.349 94.5658ZM252.308 90.6283C252.376 89.6098 253.096 88.7022 254.247 88.7022C255.337 88.7022 256.036 89.5204 256.036 90.6283H252.308ZM258.829 94.4294H259.835V90.2874C259.835 89.401 260.533 88.7533 261.488 88.7533C261.756 88.7533 262.033 88.8044 262.102 88.8215V87.7988C261.987 87.7902 261.722 87.7817 261.573 87.7817C260.789 87.7817 260.107 88.2249 259.869 88.8726H259.8V87.884H258.829V94.4294ZM269.075 94.5829C270.217 94.5829 270.814 93.9692 271.018 93.5431H271.069V94.4294H272.075V90.1169C272.075 88.0374 270.49 87.7988 269.654 87.7988C268.666 87.7988 267.541 88.1397 267.029 89.3329L267.984 89.6738C268.206 89.1965 268.73 88.6851 269.689 88.6851C270.613 88.6851 271.069 89.1752 271.069 90.0147V90.0488C271.069 90.5346 270.575 90.4919 269.382 90.6454C268.167 90.803 266.842 91.0715 266.842 92.5715C266.842 93.8499 267.831 94.5829 269.075 94.5829ZM269.228 93.6794C268.427 93.6794 267.848 93.3215 267.848 92.6226C267.848 91.8556 268.546 91.6169 269.331 91.5147C269.757 91.4635 270.899 91.3442 271.069 91.1397V92.0601C271.069 92.8783 270.421 93.6794 269.228 93.6794ZM274.15 96.884H275.156V93.4238H275.241C275.463 93.7817 275.889 94.5658 277.15 94.5658C278.787 94.5658 279.929 93.2533 279.929 91.1738C279.929 89.1113 278.787 87.7988 277.133 87.7988C275.855 87.7988 275.463 88.5829 275.241 88.9238H275.122V87.884H274.15V96.884ZM275.139 91.1567C275.139 89.6908 275.787 88.7022 277.014 88.7022C278.292 88.7022 278.923 89.776 278.923 91.1567C278.923 92.5544 278.275 93.6624 277.014 93.6624C275.804 93.6624 275.139 92.6397 275.139 91.1567ZM281.703 96.884H282.709V93.4238H282.794C283.015 93.7817 283.442 94.5658 284.703 94.5658C286.339 94.5658 287.481 93.2533 287.481 91.1738C287.481 89.1113 286.339 87.7988 284.686 87.7988C283.408 87.7988 283.015 88.5829 282.794 88.9238H282.675V87.884H281.703V96.884ZM282.692 91.1567C282.692 89.6908 283.339 88.7022 284.567 88.7022C285.845 88.7022 286.476 89.776 286.476 91.1567C286.476 92.5544 285.828 93.6624 284.567 93.6624C283.356 93.6624 282.692 92.6397 282.692 91.1567ZM289.988 94.4976C290.41 94.4976 290.755 94.1525 290.755 93.7306C290.755 93.3087 290.41 92.9635 289.988 92.9635C289.567 92.9635 289.221 93.3087 289.221 93.7306C289.221 94.1525 289.567 94.4976 289.988 94.4976ZM111.435 101.64H114.179V109.429H115.236V101.64H117.98V100.702H111.435V101.64ZM120.751 109.583C121.893 109.583 122.489 108.969 122.694 108.543H122.745V109.429H123.751V105.117C123.751 103.037 122.165 102.799 121.33 102.799C120.342 102.799 119.217 103.14 118.705 104.333L119.66 104.674C119.881 104.196 120.405 103.685 121.364 103.685C122.289 103.685 122.745 104.175 122.745 105.015V105.049C122.745 105.535 122.251 105.492 121.057 105.645C119.843 105.803 118.518 106.071 118.518 107.571C118.518 108.85 119.506 109.583 120.751 109.583ZM120.904 108.679C120.103 108.679 119.523 108.321 119.523 107.623C119.523 106.856 120.222 106.617 121.006 106.515C121.432 106.464 122.575 106.344 122.745 106.14V107.06C122.745 107.878 122.097 108.679 120.904 108.679ZM125.826 109.429H126.832V106.979L127.535 106.327L129.985 109.429H131.264L128.294 105.679L131.059 102.884H129.815L126.951 105.799H126.832V100.702H125.826V109.429ZM135.068 109.566C136.398 109.566 137.37 108.901 137.676 107.912L136.705 107.64C136.449 108.321 135.857 108.662 135.068 108.662C133.888 108.662 133.074 107.9 133.027 106.498H137.779V106.071C137.779 103.634 136.33 102.799 134.966 102.799C133.193 102.799 132.017 104.196 132.017 106.208C132.017 108.219 133.176 109.566 135.068 109.566ZM133.027 105.628C133.095 104.61 133.816 103.702 134.966 103.702C136.057 103.702 136.756 104.52 136.756 105.628H133.027ZM143.163 109.429H144.169V105.339C144.169 104.38 144.868 103.702 145.652 103.702C146.415 103.702 146.948 104.201 146.948 104.946V109.429H147.97V105.168C147.97 104.324 148.499 103.702 149.419 103.702C150.135 103.702 150.749 104.081 150.749 105.049V109.429H151.754V105.049C151.754 103.51 150.928 102.799 149.76 102.799C148.823 102.799 148.136 103.229 147.8 103.907H147.732C147.408 103.208 146.837 102.799 145.976 102.799C145.124 102.799 144.493 103.208 144.22 103.907H144.135V102.884H143.163V109.429ZM156.577 109.566C157.907 109.566 158.879 108.901 159.185 107.912L158.214 107.64C157.958 108.321 157.366 108.662 156.577 108.662C155.397 108.662 154.583 107.9 154.536 106.498H159.288V106.071C159.288 103.634 157.839 102.799 156.475 102.799C154.702 102.799 153.526 104.196 153.526 106.208C153.526 108.219 154.685 109.566 156.577 109.566ZM154.536 105.628C154.604 104.61 155.325 103.702 156.475 103.702C157.566 103.702 158.265 104.52 158.265 105.628H154.536ZM167.519 102.884H166.121V101.316H165.116V102.884H164.127V103.736H165.116V107.827C165.116 108.969 166.036 109.515 166.888 109.515C167.263 109.515 167.502 109.446 167.638 109.395L167.434 108.492C167.349 108.509 167.212 108.543 166.991 108.543C166.547 108.543 166.121 108.407 166.121 107.554V103.736H167.519V102.884ZM170.418 105.492C170.418 104.35 171.147 103.702 172.14 103.702C173.086 103.702 173.657 104.299 173.657 105.339V109.429H174.662V105.27C174.662 103.587 173.768 102.799 172.43 102.799C171.398 102.799 170.81 103.229 170.503 103.907H170.418V100.702H169.412V109.429H170.418V105.492ZM179.487 109.566C180.816 109.566 181.788 108.901 182.095 107.912L181.123 107.64C180.867 108.321 180.275 108.662 179.487 108.662C178.306 108.662 177.492 107.9 177.445 106.498H182.197V106.071C182.197 103.634 180.748 102.799 179.384 102.799C177.612 102.799 176.436 104.196 176.436 106.208C176.436 108.219 177.595 109.566 179.487 109.566ZM177.445 105.628C177.514 104.61 178.234 103.702 179.384 103.702C180.475 103.702 181.174 104.52 181.174 105.628H177.445ZM183.967 109.429H184.972V105.287C184.972 104.401 185.671 103.753 186.626 103.753C186.894 103.753 187.171 103.804 187.239 103.821V102.799C187.124 102.79 186.86 102.782 186.711 102.782C185.927 102.782 185.245 103.225 185.006 103.873H184.938V102.884H183.967V109.429ZM191.217 109.566C192.546 109.566 193.518 108.901 193.825 107.912L192.853 107.64C192.597 108.321 192.005 108.662 191.217 108.662C190.036 108.662 189.222 107.9 189.175 106.498H193.927V106.071C193.927 103.634 192.478 102.799 191.114 102.799C189.342 102.799 188.166 104.196 188.166 106.208C188.166 108.219 189.325 109.566 191.217 109.566ZM189.175 105.628C189.244 104.61 189.964 103.702 191.114 103.702C192.205 103.702 192.904 104.52 192.904 105.628H189.175ZM200.317 105.492C200.317 104.35 201.025 103.702 201.988 103.702C202.921 103.702 203.488 104.312 203.488 105.339V109.429H204.494V105.27C204.494 103.6 203.603 102.799 202.278 102.799C201.289 102.799 200.675 103.242 200.369 103.907H200.283V102.884H199.312V109.429H200.317V105.492ZM209.23 109.566C211.003 109.566 212.196 108.219 212.196 106.191C212.196 104.145 211.003 102.799 209.23 102.799C207.458 102.799 206.264 104.145 206.264 106.191C206.264 108.219 207.458 109.566 209.23 109.566ZM209.23 108.662C207.884 108.662 207.27 107.503 207.27 106.191C207.27 104.878 207.884 103.702 209.23 103.702C210.577 103.702 211.191 104.878 211.191 106.191C211.191 107.503 210.577 108.662 209.23 108.662ZM215.232 109.429H216.22L217.652 104.401H217.754L219.186 109.429H220.175L222.169 102.884H221.112L219.698 107.878H219.629L218.249 102.884H217.175L215.777 107.895H215.709L214.294 102.884H213.237L215.232 109.429ZM225.068 100.702H223.909L223.994 106.975H224.983L225.068 100.702ZM224.489 109.498C224.911 109.498 225.256 109.152 225.256 108.731C225.256 108.309 224.911 107.964 224.489 107.964C224.067 107.964 223.722 108.309 223.722 108.731C223.722 109.152 224.067 109.498 224.489 109.498Z" fill="#0A2540"/>
<circle cx="16.7474" cy="99.3577" r="8.64189" fill="#3A86FF"/>
<circle cx="60.437" cy="86.8748" r="5.76126" fill="#3A86FF"/>
<circle cx="47.9505" cy="121.923" r="8.64189" fill="#3A86FF"/>
<circle cx="32.1072" cy="79.1934" r="2.88063" fill="#3A86FF"/>
<circle cx="19.1473" cy="68.1508" r="1.44032" fill="#3A86FF"/>
<circle cx="25.3598" cy="167.731" r="52.281" transform="rotate(-48.1512 25.3598 167.731)" fill="#3A86FF"/>
</g>
<g clip-path="url(#clip1)">
<path fill-rule="evenodd" clip-rule="evenodd" d="M57.2939 60.203C57.6946 59.8978 58.1592 59.6872 58.6486 59.5684C71.8806 56.3556 81.7054 44.4302 81.7054 30.2101C81.7054 13.5255 68.1799 0 51.4953 0C34.8107 0 21.2852 13.5255 21.2852 30.2101C21.2852 41.3974 27.3661 51.1644 36.4029 56.3861C37.0325 56.7498 37.5537 57.2799 37.8725 57.9334L42.1064 66.6129C43.0561 68.5597 45.5494 69.1513 47.2724 67.8385L57.2939 60.203Z" fill="#3A86FF"/>
<g clip-path="url(#clip2)">
<path d="M37.1992 29.7691L41.8776 34.3437L46.6744 29.6601L41.8776 34.3437C40.8628 26.4086 44.1872 22.475 44.1872 22.475C52.0963 12.9802 60.8141 20.4041 60.8141 20.4041" stroke="white" stroke-width="2.1" stroke-miterlimit="10" stroke-linecap="round" stroke-linejoin="round"/>
<path d="M66.4156 30.7153L61.7373 26.1406L56.9404 30.8242L61.7373 26.1406C62.7528 34.0757 59.4277 38.0093 59.4277 38.0093C51.5185 47.5042 42.8008 40.0802 42.8008 40.0802" stroke="white" stroke-width="2.1" stroke-miterlimit="10" stroke-linecap="round" stroke-linejoin="round"/>
</g>
</g>
<defs>
<clipPath id="clip0">
<rect x="1" y="29.5234" width="378" height="104.362" rx="12" fill="white"/>
</clipPath>
<clipPath id="clip1">
<rect width="68.6594" height="68.6594" fill="white" transform="translate(17.1641)"/>
</clipPath>
<clipPath id="clip2">
<rect width="31.5833" height="31.5833" fill="white" transform="translate(35.7031 14.4185)"/>
</clipPath>
</defs>
</svg>
