<svg width="325" height="134" viewBox="0 0 325 134" fill="none" xmlns="http://www.w3.org/2000/svg">
<g clip-path="url(#clip0)">
<rect y="36" width="325" height="84" rx="12" fill="#0E3154"/>
<path d="M114.065 49.5455H110.92V61.4432H110.767L102.551 49.5455H99.7216V67H102.884V55.1108H103.028L111.253 67H114.065V49.5455ZM122.33 67.2557C125.381 67.2557 127.477 65.7642 128.023 63.4886L125.142 63.1648C124.725 64.2727 123.702 64.8523 122.372 64.8523C120.378 64.8523 119.057 63.5398 119.031 61.2983H128.151V60.3523C128.151 55.7585 125.389 53.7386 122.168 53.7386C118.418 53.7386 115.972 56.4915 115.972 60.5312C115.972 64.6392 118.384 67.2557 122.33 67.2557ZM119.04 59.2188C119.134 57.5483 120.37 56.142 122.21 56.142C123.983 56.142 125.176 57.4375 125.193 59.2188H119.04ZM132.552 67H135.774L138.228 58.1534H138.407L140.862 67H144.075L147.782 53.9091H144.629L142.362 63.0625H142.234L139.882 53.9091H136.771L134.419 63.1136H134.299L131.998 53.9091H128.853L132.552 67ZM156.587 67L158.028 62.696H164.59L166.039 67H169.414L163.261 49.5455H159.357L153.212 67H156.587ZM158.88 60.1562L161.241 53.125H161.377L163.738 60.1562H158.88ZM170.737 71.9091H173.822V64.9375H173.95C174.436 65.892 175.45 67.2301 177.7 67.2301C180.785 67.2301 183.095 64.7841 183.095 60.4716C183.095 56.108 180.717 53.7386 177.691 53.7386C175.382 53.7386 174.419 55.1278 173.95 56.0739H173.771V53.9091H170.737V71.9091ZM173.762 60.4545C173.762 57.9148 174.853 56.2699 176.839 56.2699C178.893 56.2699 179.95 58.017 179.95 60.4545C179.95 62.9091 178.876 64.6989 176.839 64.6989C174.87 64.6989 173.762 62.9943 173.762 60.4545ZM184.897 71.9091H187.982V64.9375H188.11C188.596 65.892 189.61 67.2301 191.86 67.2301C194.945 67.2301 197.255 64.7841 197.255 60.4716C197.255 56.108 194.877 53.7386 191.851 53.7386C189.542 53.7386 188.579 55.1278 188.11 56.0739H187.931V53.9091H184.897V71.9091ZM187.922 60.4545C187.922 57.9148 189.013 56.2699 190.999 56.2699C193.053 56.2699 194.11 58.017 194.11 60.4545C194.11 62.9091 193.036 64.6989 190.999 64.6989C189.03 64.6989 187.922 62.9943 187.922 60.4545ZM204.17 67H207.255V53.9091H204.17V67ZM205.721 52.0511C206.701 52.0511 207.502 51.3011 207.502 50.3807C207.502 49.4517 206.701 48.7017 205.721 48.7017C204.732 48.7017 203.931 49.4517 203.931 50.3807C203.931 51.3011 204.732 52.0511 205.721 52.0511ZM212.673 59.3295C212.673 57.4375 213.815 56.3466 215.443 56.3466C217.037 56.3466 217.991 57.3949 217.991 59.142V67H221.076V58.6648C221.085 55.5284 219.295 53.7386 216.593 53.7386C214.633 53.7386 213.287 54.6761 212.69 56.1335H212.537V53.9091H209.588V67H212.673V59.3295ZM228.622 67H235.688C239.685 67 241.645 64.9631 241.645 62.2443C241.645 59.6023 239.77 58.0511 237.912 57.9574V57.7869C239.617 57.3864 240.963 56.1932 240.963 54.071C240.963 51.4716 239.088 49.5455 235.304 49.5455H228.622V67ZM231.784 64.358V59.2443H235.27C237.222 59.2443 238.432 60.4375 238.432 61.9972C238.432 63.3864 237.477 64.358 235.185 64.358H231.784ZM231.784 56.9688V52.1534H234.98C236.838 52.1534 237.801 53.1335 237.801 54.4801C237.801 56.0142 236.557 56.9688 234.912 56.9688H231.784ZM249.215 67.2557C252.266 67.2557 254.362 65.7642 254.908 63.4886L252.027 63.1648C251.61 64.2727 250.587 64.8523 249.257 64.8523C247.263 64.8523 245.942 63.5398 245.916 61.2983H255.036V60.3523C255.036 55.7585 252.274 53.7386 249.053 53.7386C245.303 53.7386 242.857 56.4915 242.857 60.5312C242.857 64.6392 245.269 67.2557 249.215 67.2557ZM245.925 59.2188C246.019 57.5483 247.255 56.142 249.095 56.142C250.868 56.142 252.061 57.4375 252.078 59.2188H245.925ZM263.343 53.9091H260.76V50.7727H257.675V53.9091H255.817V56.2955H257.675V63.5739C257.658 66.0369 259.448 67.2472 261.766 67.179C262.644 67.1534 263.249 66.983 263.581 66.8722L263.062 64.4602C262.891 64.5028 262.542 64.5795 262.158 64.5795C261.383 64.5795 260.76 64.3068 260.76 63.0625V56.2955H263.343V53.9091ZM268.85 67.2642C270.904 67.2642 272.131 66.3011 272.694 65.2017H272.796V67H275.762V58.2386C275.762 54.7784 272.941 53.7386 270.444 53.7386C267.691 53.7386 265.577 54.9659 264.896 57.3523L267.776 57.7614C268.083 56.8665 268.952 56.0994 270.461 56.0994C271.893 56.0994 272.677 56.8324 272.677 58.1193V58.1705C272.677 59.0568 271.748 59.0994 269.438 59.3466C266.898 59.6193 264.469 60.3778 264.469 63.3267C264.469 65.9006 266.353 67.2642 268.85 67.2642ZM269.651 64.9972C268.364 64.9972 267.444 64.4091 267.444 63.2756C267.444 62.0909 268.475 61.5966 269.856 61.4006C270.665 61.2898 272.285 61.0852 272.685 60.7614V62.304C272.685 63.7614 271.509 64.9972 269.651 64.9972ZM281.8 49.5455H278.502L278.774 61.8693H281.519L281.8 49.5455ZM280.146 67.1875C281.152 67.1875 282.013 66.3523 282.021 65.3125C282.013 64.2898 281.152 63.4545 280.146 63.4545C279.107 63.4545 278.263 64.2898 278.271 65.3125C278.263 66.3523 279.107 67.1875 280.146 67.1875Z" fill="#F5F5F5"/>
<path d="M106.08 81.6865C105.756 79.8968 104.324 78.8399 102.568 78.8399C100.335 78.8399 98.7159 80.5615 98.7159 83.3229C98.7159 86.0843 100.335 87.8058 102.568 87.8058C104.324 87.8058 105.756 86.749 106.08 84.9593H105.023C104.767 86.1695 103.727 86.8172 102.568 86.8172C100.983 86.8172 99.7386 85.5899 99.7386 83.3229C99.7386 81.0558 100.983 79.8286 102.568 79.8286C103.727 79.8286 104.767 80.4763 105.023 81.6865H106.08ZM108.897 83.749C108.897 82.607 109.625 81.9593 110.618 81.9593C111.564 81.9593 112.135 82.5558 112.135 83.5956V87.6865H113.141V83.5274C113.141 81.8442 112.246 81.0558 110.908 81.0558C109.877 81.0558 109.289 81.4862 108.982 82.1638H108.897V78.9593H107.891V87.6865H108.897V83.749ZM117.965 87.8229C119.295 87.8229 120.266 87.1581 120.573 86.1695L119.601 85.8968C119.346 86.5786 118.753 86.9195 117.965 86.9195C116.785 86.9195 115.971 86.1567 115.924 84.7547H120.675V84.3286C120.675 81.8911 119.226 81.0558 117.863 81.0558C116.09 81.0558 114.914 82.4536 114.914 84.4649C114.914 86.4763 116.073 87.8229 117.965 87.8229ZM115.924 83.8854C115.992 82.8669 116.712 81.9593 117.863 81.9593C118.954 81.9593 119.653 82.7774 119.653 83.8854H115.924ZM125.104 87.8229C126.553 87.8229 127.508 86.9365 127.678 85.7774H126.672C126.485 86.4933 125.888 86.9195 125.104 86.9195C123.911 86.9195 123.144 85.9308 123.144 84.4138C123.144 82.9308 123.928 81.9593 125.104 81.9593C125.991 81.9593 126.519 82.5047 126.672 83.1013H127.678C127.508 81.874 126.468 81.0558 125.087 81.0558C123.314 81.0558 122.138 82.4536 122.138 84.4479C122.138 86.4081 123.263 87.8229 125.104 87.8229ZM129.388 87.6865H130.394V85.2362L131.097 84.5843L133.547 87.6865H134.826L131.856 83.9365L134.621 81.1411H133.377L130.513 84.0558H130.394V78.9593H129.388V87.6865ZM142.43 87.8229C144.202 87.8229 145.396 86.4763 145.396 84.4479C145.396 82.4024 144.202 81.0558 142.43 81.0558C140.657 81.0558 139.464 82.4024 139.464 84.4479C139.464 86.4763 140.657 87.8229 142.43 87.8229ZM142.43 86.9195C141.083 86.9195 140.469 85.7604 140.469 84.4479C140.469 83.1354 141.083 81.9593 142.43 81.9593C143.776 81.9593 144.39 83.1354 144.39 84.4479C144.39 85.7604 143.776 86.9195 142.43 86.9195ZM151.296 85.0104C151.296 86.2377 150.358 86.8002 149.608 86.8002C148.773 86.8002 148.176 86.1865 148.176 85.232V81.1411H147.171V85.3002C147.171 86.9706 148.057 87.7718 149.284 87.7718C150.273 87.7718 150.921 87.2433 151.228 86.5786H151.296V87.6865H152.301V81.1411H151.296V85.0104ZM157.23 81.1411H155.832V79.5729H154.827V81.1411H153.838V81.9933H154.827V86.0843C154.827 87.2263 155.747 87.7718 156.599 87.7718C156.974 87.7718 157.213 87.7036 157.349 87.6524L157.145 86.749C157.06 86.7661 156.923 86.8002 156.702 86.8002C156.258 86.8002 155.832 86.6638 155.832 85.8115V81.9933H157.23V81.1411ZM165.257 87.8229C167.03 87.8229 168.223 86.4763 168.223 84.4479C168.223 82.4024 167.03 81.0558 165.257 81.0558C163.484 81.0558 162.291 82.4024 162.291 84.4479C162.291 86.4763 163.484 87.8229 165.257 87.8229ZM165.257 86.9195C163.91 86.9195 163.297 85.7604 163.297 84.4479C163.297 83.1354 163.91 81.9593 165.257 81.9593C166.603 81.9593 167.217 83.1354 167.217 84.4479C167.217 85.7604 166.603 86.9195 165.257 86.9195ZM174.123 85.0104C174.123 86.2377 173.185 86.8002 172.435 86.8002C171.6 86.8002 171.004 86.1865 171.004 85.232V81.1411H169.998V85.3002C169.998 86.9706 170.884 87.7718 172.112 87.7718C173.1 87.7718 173.748 87.2433 174.055 86.5786H174.123V87.6865H175.129V81.1411H174.123V85.0104ZM177.211 87.6865H178.216V83.5445C178.216 82.6581 178.915 82.0104 179.87 82.0104C180.138 82.0104 180.415 82.0615 180.483 82.0786V81.0558C180.368 81.0473 180.104 81.0388 179.955 81.0388C179.171 81.0388 178.489 81.482 178.25 82.1297H178.182V81.1411H177.211V87.6865ZM186.536 83.749C186.536 82.607 187.244 81.9593 188.207 81.9593C189.14 81.9593 189.707 82.5686 189.707 83.5956V87.6865H190.712V83.5274C190.712 81.857 189.822 81.0558 188.496 81.0558C187.508 81.0558 186.894 81.499 186.587 82.1638H186.502V81.1411H185.53V87.6865H186.536V83.749ZM195.534 87.8229C196.864 87.8229 197.835 87.1581 198.142 86.1695L197.171 85.8968C196.915 86.5786 196.323 86.9195 195.534 86.9195C194.354 86.9195 193.54 86.1567 193.493 84.7547H198.245V84.3286C198.245 81.8911 196.796 81.0558 195.432 81.0558C193.659 81.0558 192.483 82.4536 192.483 84.4649C192.483 86.4763 193.642 87.8229 195.534 87.8229ZM193.493 83.8854C193.561 82.8669 194.281 81.9593 195.432 81.9593C196.523 81.9593 197.222 82.7774 197.222 83.8854H193.493ZM201.497 87.6865H202.486L203.918 82.6581H204.02L205.452 87.6865H206.44L208.435 81.1411H207.378L205.963 86.1354H205.895L204.514 81.1411H203.44L202.043 86.1524H201.975L200.56 81.1411H199.503L201.497 87.6865ZM210.614 86.4933H209.523L209.472 86.9706C209.348 88.1254 209.105 89.276 208.994 89.8172H209.761C209.966 89.2377 210.401 87.9252 210.546 86.9536L210.614 86.4933ZM219.247 81.1411H217.781V80.4763C217.781 79.8286 218.054 79.4877 218.718 79.4877C219.008 79.4877 219.179 79.5558 219.281 79.5899L219.571 78.7206C219.417 78.6524 219.11 78.5502 218.616 78.5502C217.679 78.5502 216.775 79.1127 216.775 80.2377V81.1411H215.718V81.9933H216.775V87.6865H217.781V81.9933H219.247V81.1411ZM222.635 87.8399C223.777 87.8399 224.374 87.2263 224.578 86.8002H224.629V87.6865H225.635V83.374C225.635 81.2945 224.05 81.0558 223.214 81.0558C222.226 81.0558 221.101 81.3968 220.589 82.5899L221.544 82.9308C221.766 82.4536 222.29 81.9422 223.249 81.9422C224.173 81.9422 224.629 82.4323 224.629 83.2718V83.3058C224.629 83.7916 224.135 83.749 222.942 83.9024C221.727 84.0601 220.402 84.3286 220.402 85.8286C220.402 87.107 221.391 87.8399 222.635 87.8399ZM222.788 86.9365C221.987 86.9365 221.408 86.5786 221.408 85.8797C221.408 85.1127 222.106 84.874 222.891 84.7718C223.317 84.7206 224.459 84.6013 224.629 84.3968V85.3172C224.629 86.1354 223.981 86.9365 222.788 86.9365ZM232.347 82.607C232.031 81.678 231.324 81.0558 230.029 81.0558C228.648 81.0558 227.625 81.8399 227.625 82.9479C227.625 83.8513 228.162 84.4564 229.364 84.7377L230.455 84.9933C231.115 85.1468 231.426 85.4621 231.426 85.9138C231.426 86.4763 230.83 86.9365 229.892 86.9365C229.07 86.9365 228.554 86.5828 228.375 85.8797L227.421 86.1183C227.655 87.2306 228.571 87.8229 229.909 87.8229C231.431 87.8229 232.466 86.9919 232.466 85.8627C232.466 84.9507 231.895 84.3754 230.727 84.0899L229.756 83.8513C228.98 83.6595 228.631 83.3996 228.631 82.8968C228.631 82.3343 229.227 81.9252 230.029 81.9252C230.906 81.9252 231.269 82.411 231.443 82.8627L232.347 82.607ZM237.067 81.1411H235.669V79.5729H234.663V81.1411H233.675V81.9933H234.663V86.0843C234.663 87.2263 235.584 87.7718 236.436 87.7718C236.811 87.7718 237.05 87.7036 237.186 87.6524L236.981 86.749C236.896 86.7661 236.76 86.8002 236.538 86.8002C236.095 86.8002 235.669 86.6638 235.669 85.8115V81.9933H237.067V81.1411ZM241.493 87.8229C242.823 87.8229 243.795 87.1581 244.101 86.1695L243.13 85.8968C242.874 86.5786 242.282 86.9195 241.493 86.9195C240.313 86.9195 239.499 86.1567 239.452 84.7547H244.204V84.3286C244.204 81.8911 242.755 81.0558 241.391 81.0558C239.618 81.0558 238.442 82.4536 238.442 84.4649C238.442 86.4763 239.601 87.8229 241.493 87.8229ZM239.452 83.8854C239.52 82.8669 240.241 81.9593 241.391 81.9593C242.482 81.9593 243.181 82.7774 243.181 83.8854H239.452ZM245.973 87.6865H246.979V83.5445C246.979 82.6581 247.678 82.0104 248.633 82.0104C248.901 82.0104 249.178 82.0615 249.246 82.0786V81.0558C249.131 81.0473 248.867 81.0388 248.718 81.0388C247.934 81.0388 247.252 81.482 247.013 82.1297H246.945V81.1411H245.973V87.6865ZM256.219 87.8399C257.361 87.8399 257.958 87.2263 258.163 86.8002H258.214V87.6865H259.219V83.374C259.219 81.2945 257.634 81.0558 256.799 81.0558C255.81 81.0558 254.685 81.3968 254.174 82.5899L255.128 82.9308C255.35 82.4536 255.874 81.9422 256.833 81.9422C257.758 81.9422 258.214 82.4323 258.214 83.2718V83.3058C258.214 83.7916 257.719 83.749 256.526 83.9024C255.312 84.0601 253.986 84.3286 253.986 85.8286C253.986 87.107 254.975 87.8399 256.219 87.8399ZM256.373 86.9365C255.572 86.9365 254.992 86.5786 254.992 85.8797C254.992 85.1127 255.691 84.874 256.475 84.7718C256.901 84.7206 258.043 84.6013 258.214 84.3968V85.3172C258.214 86.1354 257.566 86.9365 256.373 86.9365ZM261.295 90.1411H262.301V86.6808H262.386C262.607 87.0388 263.034 87.8229 264.295 87.8229C265.931 87.8229 267.073 86.5104 267.073 84.4308C267.073 82.3683 265.931 81.0558 264.278 81.0558C263 81.0558 262.607 81.8399 262.386 82.1808H262.267V81.1411H261.295V90.1411ZM262.284 84.4138C262.284 82.9479 262.931 81.9593 264.159 81.9593C265.437 81.9593 266.068 83.0331 266.068 84.4138C266.068 85.8115 265.42 86.9195 264.159 86.9195C262.948 86.9195 262.284 85.8968 262.284 84.4138ZM268.847 90.1411H269.853V86.6808H269.938C270.16 87.0388 270.586 87.8229 271.847 87.8229C273.484 87.8229 274.626 86.5104 274.626 84.4308C274.626 82.3683 273.484 81.0558 271.83 81.0558C270.552 81.0558 270.16 81.8399 269.938 82.1808H269.819V81.1411H268.847V90.1411ZM269.836 84.4138C269.836 82.9479 270.484 81.9593 271.711 81.9593C272.99 81.9593 273.62 83.0331 273.62 84.4138C273.62 85.8115 272.972 86.9195 271.711 86.9195C270.501 86.9195 269.836 85.8968 269.836 84.4138ZM277.133 87.7547C277.555 87.7547 277.9 87.4095 277.9 86.9877C277.9 86.5658 277.555 86.2206 277.133 86.2206C276.711 86.2206 276.366 86.5658 276.366 86.9877C276.366 87.4095 276.711 87.7547 277.133 87.7547ZM98.5795 94.8968H101.324V102.687H102.381V94.8968H105.125V93.9593H98.5795V94.8968ZM107.895 102.84C109.037 102.84 109.634 102.226 109.838 101.8H109.89V102.687H110.895V98.374C110.895 96.2945 109.31 96.0558 108.475 96.0558C107.486 96.0558 106.361 96.3968 105.85 97.5899L106.804 97.9308C107.026 97.4536 107.55 96.9422 108.509 96.9422C109.434 96.9422 109.89 97.4323 109.89 98.2718V98.3058C109.89 98.7916 109.395 98.749 108.202 98.9024C106.988 99.0601 105.662 99.3286 105.662 100.829C105.662 102.107 106.651 102.84 107.895 102.84ZM108.049 101.937C107.247 101.937 106.668 101.579 106.668 100.88C106.668 100.113 107.367 99.874 108.151 99.7718C108.577 99.7206 109.719 99.6013 109.89 99.3968V100.317C109.89 101.135 109.242 101.937 108.049 101.937ZM112.971 102.687H113.976V100.236L114.68 99.5843L117.13 102.687H118.408L115.438 98.9365L118.204 96.1411H116.959L114.096 99.0558H113.976V93.9593H112.971V102.687ZM122.213 102.823C123.542 102.823 124.514 102.158 124.821 101.169L123.849 100.897C123.594 101.579 123.001 101.919 122.213 101.919C121.032 101.919 120.219 101.157 120.172 99.7547H124.923V99.3286C124.923 96.8911 123.474 96.0558 122.111 96.0558C120.338 96.0558 119.162 97.4536 119.162 99.4649C119.162 101.476 120.321 102.823 122.213 102.823ZM120.172 98.8854C120.24 97.8669 120.96 96.9593 122.111 96.9593C123.202 96.9593 123.9 97.7774 123.9 98.8854H120.172ZM130.308 102.687H131.314V98.5956C131.314 97.6368 132.013 96.9593 132.797 96.9593C133.559 96.9593 134.092 97.4578 134.092 98.2036V102.687H135.115V98.4252C135.115 97.5814 135.643 96.9593 136.564 96.9593C137.28 96.9593 137.893 97.3385 137.893 98.3058V102.687H138.899V98.3058C138.899 96.7675 138.072 96.0558 136.905 96.0558C135.967 96.0558 135.281 96.4862 134.944 97.1638H134.876C134.552 96.4649 133.981 96.0558 133.12 96.0558C132.268 96.0558 131.638 96.4649 131.365 97.1638H131.28V96.1411H130.308V102.687ZM143.722 102.823C145.052 102.823 146.023 102.158 146.33 101.169L145.358 100.897C145.103 101.579 144.51 101.919 143.722 101.919C142.542 101.919 141.728 101.157 141.681 99.7547H146.432V99.3286C146.432 96.8911 144.983 96.0558 143.62 96.0558C141.847 96.0558 140.671 97.4536 140.671 99.4649C140.671 101.476 141.83 102.823 143.722 102.823ZM141.681 98.8854C141.749 97.8669 142.469 96.9593 143.62 96.9593C144.711 96.9593 145.409 97.7774 145.409 98.8854H141.681ZM154.664 96.1411H153.266V94.5729H152.26V96.1411H151.272V96.9933H152.26V101.084C152.26 102.226 153.181 102.772 154.033 102.772C154.408 102.772 154.647 102.704 154.783 102.652L154.578 101.749C154.493 101.766 154.357 101.8 154.135 101.8C153.692 101.8 153.266 101.664 153.266 100.812V96.9933H154.664V96.1411ZM157.563 98.749C157.563 97.607 158.291 96.9593 159.284 96.9593C160.23 96.9593 160.801 97.5558 160.801 98.5956V102.687H161.807V98.5274C161.807 96.8442 160.912 96.0558 159.574 96.0558C158.543 96.0558 157.955 96.4862 157.648 97.1638H157.563V93.9593H156.557V102.687H157.563V98.749ZM166.631 102.823C167.961 102.823 168.932 102.158 169.239 101.169L168.268 100.897C168.012 101.579 167.42 101.919 166.631 101.919C165.451 101.919 164.637 101.157 164.59 99.7547H169.341V99.3286C169.341 96.8911 167.893 96.0558 166.529 96.0558C164.756 96.0558 163.58 97.4536 163.58 99.4649C163.58 101.476 164.739 102.823 166.631 102.823ZM164.59 98.8854C164.658 97.8669 165.378 96.9593 166.529 96.9593C167.62 96.9593 168.319 97.7774 168.319 98.8854H164.59ZM171.111 102.687H172.117V98.5445C172.117 97.6581 172.816 97.0104 173.77 97.0104C174.039 97.0104 174.316 97.0615 174.384 97.0786V96.0558C174.269 96.0473 174.005 96.0388 173.856 96.0388C173.071 96.0388 172.39 96.482 172.151 97.1297H172.083V96.1411H171.111V102.687ZM178.361 102.823C179.691 102.823 180.662 102.158 180.969 101.169L179.998 100.897C179.742 101.579 179.15 101.919 178.361 101.919C177.181 101.919 176.367 101.157 176.32 99.7547H181.071V99.3286C181.071 96.8911 179.623 96.0558 178.259 96.0558C176.486 96.0558 175.31 97.4536 175.31 99.4649C175.31 101.476 176.469 102.823 178.361 102.823ZM176.32 98.8854C176.388 97.8669 177.108 96.9593 178.259 96.9593C179.35 96.9593 180.049 97.7774 180.049 98.8854H176.32ZM187.462 98.749C187.462 97.607 188.169 96.9593 189.132 96.9593C190.066 96.9593 190.632 97.5686 190.632 98.5956V102.687H191.638V98.5274C191.638 96.857 190.747 96.0558 189.422 96.0558C188.434 96.0558 187.82 96.499 187.513 97.1638H187.428V96.1411H186.456V102.687H187.462V98.749ZM196.375 102.823C198.148 102.823 199.341 101.476 199.341 99.4479C199.341 97.4024 198.148 96.0558 196.375 96.0558C194.602 96.0558 193.409 97.4024 193.409 99.4479C193.409 101.476 194.602 102.823 196.375 102.823ZM196.375 101.919C195.028 101.919 194.415 100.76 194.415 99.4479C194.415 98.1354 195.028 96.9593 196.375 96.9593C197.721 96.9593 198.335 98.1354 198.335 99.4479C198.335 100.76 197.721 101.919 196.375 101.919ZM202.376 102.687H203.365L204.797 97.6581H204.899L206.331 102.687H207.319L209.314 96.1411H208.257L206.842 101.135H206.774L205.393 96.1411H204.319L202.922 101.152H202.853L201.439 96.1411H200.382L202.376 102.687ZM212.213 93.9593H211.054L211.139 100.232H212.128L212.213 93.9593ZM211.633 102.755C212.055 102.755 212.4 102.41 212.4 101.988C212.4 101.566 212.055 101.221 211.633 101.221C211.211 101.221 210.866 101.566 210.866 101.988C210.866 102.41 211.211 102.755 211.633 102.755Z" fill="white"/>
<circle cx="15.7474" cy="82.6473" r="8.64189" fill="#3A86FF"/>
<circle cx="59.437" cy="70.1643" r="5.76126" fill="#3A86FF"/>
<circle cx="46.9505" cy="105.212" r="8.64189" fill="#3A86FF"/>
<circle cx="31.1072" cy="62.4829" r="2.88063" fill="#3A86FF"/>
<circle cx="18.1473" cy="51.4403" r="1.44032" fill="#3A86FF"/>
<circle cx="24.3598" cy="151.021" r="52.281" transform="rotate(-48.1512 24.3598 151.021)" fill="#3A86FF"/>
</g>
<g clip-path="url(#clip1)">
<path fill-rule="evenodd" clip-rule="evenodd" d="M55.1757 55.7714C55.487 55.5342 55.8481 55.3706 56.2284 55.2783C66.5091 52.783 74.1428 43.5179 74.1428 32.4699C74.1428 19.5078 63.635 9 50.673 9C37.7109 9 27.2031 19.5078 27.2031 32.4699C27.2031 41.1604 31.9265 48.7476 38.9461 52.8045C39.4351 53.0871 39.84 53.4989 40.0876 54.0065L43.3774 60.7506C44.1152 62.2631 46.0522 62.7227 47.3908 61.7028L55.1757 55.7714Z" fill="#3A86FF"/>
<g clip-path="url(#clip2)">
<path d="M39.5625 32.1271L43.1971 35.6811L46.9236 32.0425L43.1971 35.6811C42.4087 29.5164 44.9913 26.4604 44.9913 26.4604C51.1359 19.084 57.9086 24.8516 57.9086 24.8516" stroke="white" stroke-width="1.63147" stroke-miterlimit="10" stroke-linecap="round" stroke-linejoin="round"/>
<path d="M62.2601 32.8621L58.6256 29.3081L54.899 32.9467L58.6256 29.3081C59.4145 35.4728 56.8313 38.5288 56.8313 38.5288C50.6868 45.9052 43.9141 40.1376 43.9141 40.1376" stroke="white" stroke-width="1.63147" stroke-miterlimit="10" stroke-linecap="round" stroke-linejoin="round"/>
</g>
</g>
<defs>
<clipPath id="clip0">
<rect y="36" width="325" height="84" rx="12" fill="white"/>
</clipPath>
<clipPath id="clip1">
<rect width="53.3406" height="53.3406" fill="white" transform="translate(24 9)"/>
</clipPath>
<clipPath id="clip2">
<rect width="24.5367" height="24.5367" fill="white" transform="translate(38.4023 20.2014)"/>
</clipPath>
</defs>
</svg>
