<svg width="994" height="181" viewBox="0 0 994 181" fill="none" xmlns="http://www.w3.org/2000/svg">
<path d="M91 180.2C66.9129 180.2 44.3375 170.827 27.3052 153.795C10.2728 136.763 0.900024 114.187 0.900024 90.1C0.900024 66.0129 10.2728 43.4375 27.3052 26.4052C44.3375 9.37283 66.9129 0 91 0C115.087 0 137.663 9.37283 154.695 26.4052C171.727 43.4375 181.1 66.0129 181.1 90.1C181.1 114.187 171.727 136.763 154.695 153.795C137.663 170.827 115.087 180.2 91 180.2Z" fill="#FBFBFB"/>
<mask id="mask0" mask-type="alpha" maskUnits="userSpaceOnUse" x="0" y="0" width="182" height="181">
<path d="M91 180.2C66.9129 180.2 44.3375 170.827 27.3052 153.795C10.2728 136.763 0.900024 114.187 0.900024 90.1C0.900024 66.0129 10.2728 43.4375 27.3052 26.4052C44.3375 9.37283 66.9129 0 91 0C115.087 0 137.663 9.37283 154.695 26.4052C171.727 43.4375 181.1 66.0129 181.1 90.1C181.1 114.187 171.727 136.763 154.695 153.795C137.663 170.827 115.087 180.2 91 180.2Z" fill="#FBFBFB"/>
</mask>
<g mask="url(#mask0)">
<path d="M93.4189 180.704H128.491C128.491 164.679 146.33 141.701 146.33 107.132C146.33 77.7033 141.492 61.7796 138.469 54.3217C136.05 48.1739 133.228 44.6465 127.181 44.6465C121.134 44.6465 115.289 46.9645 113.676 60.5702C108.939 100.984 90.8993 124.366 93.4189 180.704Z" fill="#FBFBFB"/>
<path d="M88.0774 180.705H53.0049C53.0049 164.68 35.1663 141.702 35.1663 107.133C35.1663 77.7043 40.0039 61.7806 43.0274 54.3226C45.4462 48.1749 48.2681 44.6475 54.3151 44.6475C60.3621 44.6475 66.2075 46.9655 67.82 60.5712C72.456 100.985 90.4962 124.367 88.0774 180.705Z" fill="#FBFBFB"/>
<path d="M129.61 181.611H92.7229V180.704C91.2112 145.53 97.6613 123.157 103.809 101.488C107.639 88.1848 111.267 75.5869 113.081 60.3687C113.887 53.9185 115.601 49.4841 118.423 46.763C120.64 44.6465 123.563 43.6387 127.493 43.6387C134.145 43.6387 137.168 47.7708 139.587 53.9186C144.727 66.8188 147.448 85.2621 147.448 107.031C147.448 127.793 141.099 144.422 135.959 157.725C132.532 166.594 129.61 174.254 129.61 180.603V181.611ZM94.537 179.797H127.795C128.098 173.346 130.92 165.788 134.246 157.221C139.285 144.019 145.634 127.591 145.634 107.132C145.634 85.5644 142.913 67.4235 137.874 54.7248C135.253 48.0731 132.431 45.6543 127.493 45.6543C122.152 45.6543 116.508 47.4684 114.895 60.7718C113.081 76.1916 109.453 88.7895 105.623 102.194C99.5762 123.358 93.2269 145.329 94.537 179.797Z" fill="#232323"/>
<path d="M89.2252 181.61H52.3386V180.703C52.3386 174.354 49.4159 166.695 45.9893 157.826C40.8494 144.522 34.5001 127.893 34.5001 107.132C34.5001 85.2619 37.2212 66.9194 42.3611 54.0191C44.7799 47.8714 47.8034 43.7393 54.4551 43.7393C58.3856 43.7393 61.2076 44.7471 63.5256 46.8635C66.3475 49.5847 68.1616 54.0191 68.8671 60.4692C70.6812 75.6875 74.3093 88.2854 78.1391 101.589C84.3876 123.257 90.737 145.53 89.2252 180.804V181.61ZM54.2535 179.796H87.5119C88.9229 145.429 82.5736 123.358 76.4258 102.093C72.596 88.6885 68.9678 76.0906 67.1537 60.6708C65.642 47.3675 59.8974 45.5534 54.5559 45.5534C49.6175 45.5534 46.7956 47.9722 44.1752 54.6238C39.1361 67.3225 36.4149 85.4635 36.4149 107.031C36.4149 127.389 42.7643 143.918 47.8034 157.12C51.1293 165.788 53.9512 173.245 54.2535 179.796Z" fill="#232323"/>
<path d="M91.0749 181.107H90.1678C82.5083 181.107 76.159 176.975 71.7246 169.113C67.794 162.26 65.476 152.787 64.8713 141.7C63.6619 120.334 61.3439 79.6181 59.8322 61.3764C59.2275 53.3137 56.6071 52.6083 54.2891 52.6083C51.568 52.6083 49.8547 54.8255 48.2421 60.5701C46.8312 65.7101 41.8928 89.7972 43.9085 114.388C45.1179 129.405 49.9554 142.003 54.2891 153.089C58.2196 163.268 61.5455 172.036 61.5455 180.603H59.7314C59.7314 172.339 56.4056 163.772 52.5758 153.794C48.2421 142.507 43.3038 129.808 42.0944 114.489C40.0787 89.6964 45.1179 65.2061 46.5288 60.0662C47.839 55.2286 49.7539 50.6934 54.2891 50.6934C58.8243 50.6934 61.0416 53.8177 61.6463 61.074C63.0572 79.3158 65.476 120.133 66.6854 141.499C67.2901 152.283 69.6081 161.454 73.3371 168.106C77.4692 175.463 83.2138 179.192 90.1678 179.192H91.0749C94.7031 179.192 98.0289 178.184 100.952 176.269C103.774 174.455 106.192 171.633 108.309 168.106C112.239 161.454 114.658 152.081 115.263 141.499C116.472 120.133 118.79 79.3158 120.302 61.074C120.907 53.7169 123.124 50.6934 127.659 50.6934C132.194 50.6934 134.109 55.1278 135.419 60.0662C136.83 65.2061 141.87 89.6964 139.854 114.489C138.644 129.707 133.706 142.608 129.372 153.895C125.543 163.974 122.217 172.641 122.217 180.905H120.403C120.403 172.339 123.829 163.47 127.659 153.291C131.892 142.104 136.83 129.405 138.04 114.388C140.055 89.898 135.117 65.7101 133.706 60.5701C132.094 54.8255 130.38 52.6083 127.659 52.6083C125.341 52.6083 122.822 53.3137 122.116 61.3764C120.705 79.6181 118.286 120.334 117.077 141.7C116.472 152.686 113.953 162.159 109.921 169.113C105.185 176.874 98.7344 181.107 91.0749 181.107Z" fill="#232323"/>
<path d="M104.82 44.8482V46.1583C96.5558 47.9724 93.3308 51.0967 91.5167 59.6633H89.9042C88.0901 50.996 85.1674 47.9724 76.5001 46.1583V44.8482C85.0666 43.0341 87.9893 39.9098 89.9042 31.3433H91.5167C93.4316 40.0106 96.6566 43.0341 104.82 44.8482Z" fill="#232323"/>
</g>
<path d="M954.932 61.8052C933.616 61.8052 916.333 79.0884 916.333 100.404C916.333 121.72 933.616 139.003 954.932 139.003C976.248 139.003 993.531 121.72 993.531 100.404C993.531 79.0884 976.248 61.8052 954.932 61.8052ZM954.932 128.452C939.438 128.452 926.885 115.888 926.885 100.404C926.885 84.9101 939.448 72.357 954.932 72.357C970.426 72.357 982.979 84.9202 982.979 100.404C982.979 115.899 970.416 128.452 954.932 128.452Z" fill="#FBFBFB"/>
<path d="M521.225 61.8052C510.34 61.8052 502.103 70.4266 499.717 77.451V64.8272H467.698V75.4094H489.226V125.874L467.637 125.905V136.396L526.37 136.365V125.874H499.717V93.8751C499.717 89.0742 503.861 71.6899 518.213 71.6899C522.6 71.6899 526.612 72.8523 529.22 75.8945C528.199 77.2691 527.593 78.9671 527.593 80.8066C527.593 85.3851 531.302 89.0843 535.87 89.0843C540.793 89.0843 543.986 85.0718 543.986 80.2103C544.007 72.2155 534.961 61.8052 521.225 61.8052Z" fill="#FBFBFB"/>
<path d="M794.603 61.7749C783.717 61.7749 775.48 70.3559 773.095 77.3803V64.8475L741.075 64.8273V75.4195H762.604V125.804L741.015 125.834V136.325L799.747 136.295V125.804H773.095V93.8145C773.095 89.0136 777.239 71.6294 791.591 71.6294C795.977 71.6294 799.99 72.7917 802.598 75.8339C801.577 77.2085 800.97 78.9065 800.97 80.746C800.97 85.3245 804.68 89.0237 809.248 89.0237C814.17 89.0237 817.364 85.0112 817.364 80.1497C817.384 72.1448 808.338 61.7749 794.603 61.7749Z" fill="#FBFBFB"/>
<path d="M619.921 95.573C624.5 95.573 628.199 91.8637 628.199 87.2953C628.199 86.9415 628.169 86.5878 628.128 86.2441C627.077 76.703 612.098 61.9668 593.036 61.9668C571.447 61.9668 553.942 79.2904 553.942 100.647C553.942 122.003 571.447 139.327 593.036 139.327C607.985 139.327 620.962 131.019 627.532 118.819L619.082 113.109C613.908 122.357 604.286 128.765 593.026 128.765C577.34 128.765 565.04 116.181 565.04 100.657C565.04 85.1323 577.34 72.549 593.026 72.549C601.728 72.549 609.066 75.8742 613.938 81.5645C612.503 83.0503 611.623 85.0717 611.623 87.3054C611.644 91.8637 615.353 95.573 619.921 95.573Z" fill="#FBFBFB"/>
<path d="M879.583 75.4297H888.266L869.507 124.035L849.03 75.4398H857.924V64.8374H827.117V75.4297H837.78L864.049 138.215L849.555 175.804H860.784L899.484 75.4398H910.39V64.8374H879.583V75.4297Z" fill="#FBFBFB"/>
<path d="M355.519 92.1866C355.519 73.4176 342.986 61.7944 327.643 61.7944C315.596 61.7944 305.549 70.4967 301.142 79.3808C296.857 68.354 286.982 61.7944 275.531 61.7944C264.08 61.7944 254.286 70.3653 251.233 77.3999V64.8064L229.432 64.8468V75.429H240.742V136.294H251.233V93.7027C251.233 88.8007 257.116 71.4468 274.005 71.4468C282.01 71.4468 292.915 78.6835 292.915 93.5005C292.915 100.98 292.915 136.304 292.915 136.304H303.406C303.406 136.304 303.406 94.2484 303.406 93.5005C303.406 88.5986 308.632 71.4468 326.127 71.4468C334.132 71.4468 345.038 77.976 345.038 92.7829C345.038 100.262 345.038 136.304 345.038 136.304H366.819V125.884H355.529L355.519 92.1866Z" fill="#FBFBFB"/>
<path d="M417.051 61.7646C395.684 61.7646 378.371 78.7851 378.371 100.152C378.371 100.859 378.533 103.689 378.573 104.124C380.524 123.681 397.19 138.973 417.465 138.973C432.414 138.973 445.391 130.665 451.961 118.466L443.511 112.755C438.337 122.003 428.715 128.411 417.455 128.411C403.063 128.411 391.066 117.809 389.256 104.063L454.063 104.103C454.195 102.81 454.265 101.486 454.265 100.162C454.276 78.7851 438.417 61.7646 417.051 61.7646ZM389.64 93.5617C392.612 81.14 403.78 71.9021 417.112 71.9021C430.443 71.9021 440.156 81.14 443.127 93.5617H389.64Z" fill="#FBFBFB"/>
<path d="M713.776 64.8374H703.285L703.295 107.196C703.295 116.839 693.228 129.846 680.453 129.846C672.448 129.846 661.613 122.266 661.613 108.5C661.613 101.021 661.613 64.8374 661.613 64.8374L639.832 64.8576V75.3994H651.122V109.097C651.122 127.865 663.624 138.963 678.967 138.963C689.832 138.963 698.231 132.262 703.295 125.238V136.386L725.096 136.345V125.854H713.786L713.776 64.8374Z" fill="#FBFBFB"/>
</svg>
