<svg width="135" height="41" viewBox="0 0 135 41" fill="none" xmlns="http://www.w3.org/2000/svg">
<g clip-path="url(#clip0)">
<path d="M44.4875 31.4969H47.2981V20.948L51.627 31.4969H53.8937L58.2001 20.948V31.4969H61.0107V15.5826H57.5655L52.7606 27.3364L47.9557 15.5826H44.4875V31.4969Z" fill="#111111"/>
<path d="M68.7002 31.6787C72.168 31.6787 74.6612 29.1779 74.6612 25.7677C74.6612 22.3576 72.168 19.8568 68.7002 19.8568C65.21 19.8568 62.7168 22.3576 62.7168 25.7677C62.7168 29.1779 65.21 31.6787 68.7002 31.6787ZM68.7002 29.2689C66.7963 29.2689 65.5274 27.8366 65.5274 25.7677C65.5274 23.6989 66.7963 22.2666 68.7002 22.2666C70.5817 22.2666 71.8506 23.6989 71.8506 25.7677C71.8506 27.8366 70.5817 29.2689 68.7002 29.2689Z" fill="#111111"/>
<path d="M81.4609 31.6787C84.9286 31.6787 87.4218 29.1779 87.4218 25.7677C87.4218 22.3576 84.9286 19.8568 81.4609 19.8568C77.9707 19.8568 75.4774 22.3576 75.4774 25.7677C75.4774 29.1779 77.9707 31.6787 81.4609 31.6787ZM81.4609 29.2689C79.5569 29.2689 78.288 27.8366 78.288 25.7677C78.288 23.6989 79.5569 22.2666 81.4609 22.2666C83.3423 22.2666 84.6113 23.6989 84.6113 25.7677C84.6113 27.8366 83.3423 29.2689 81.4609 29.2689Z" fill="#111111"/>
<path d="M88.8497 31.4969H91.6378V25.2448C91.6378 23.5625 92.7256 22.3348 94.2893 22.3348C95.7173 22.3348 96.6693 23.4261 96.6693 24.9948V31.4969H99.4569V24.4037C99.4569 21.721 97.7799 19.8568 95.1959 19.8568C93.5643 19.8568 92.2725 20.5615 91.6378 21.8119V20.0386H88.8497V31.4969Z" fill="#111111"/>
<path d="M101.772 31.4969H104.786V25.4495H108.141C111.45 25.4495 113.422 23.4033 113.422 20.516C113.422 17.6287 111.45 15.5826 108.141 15.5826H101.772V31.4969ZM104.786 22.9259V18.1062H108.005C109.773 18.1062 110.498 19.2429 110.498 20.516C110.498 21.7892 109.773 22.9259 108.005 22.9259H104.786Z" fill="#111111"/>
<path d="M118.774 19.8568C115.805 19.8568 113.878 21.6301 113.742 23.9035H116.235C116.281 22.8804 117.165 21.9483 118.638 21.9483C120.111 21.9483 120.972 22.744 120.972 23.858C120.972 24.3127 120.701 24.631 120.134 24.631H118.026C115.465 24.631 113.742 26.0178 113.742 28.2458C113.742 30.2237 115.283 31.6787 117.55 31.6787C119.182 31.6787 120.496 30.9285 120.972 29.7917V31.4969H123.715V24.1309C123.715 21.5391 121.675 19.8568 118.774 19.8568ZM118.207 29.6099C117.165 29.6099 116.439 29.0188 116.439 28.1321C116.439 27.1318 117.233 26.4725 118.411 26.4725H120.972V26.6544C120.972 28.3822 119.953 29.6099 118.207 29.6099Z" fill="#111111"/>
<path d="M135 20.0386H132.144L129.515 27.9048L126.863 20.0386H124.03L128.2 31.4969L126.591 36.1347H129.243L131.011 30.9512L135 20.0386Z" fill="#111111"/>
<path d="M33.0532 24.1555C33.0532 33.3109 25.654 40.7328 16.5266 40.7328C7.3992 40.7328 0 33.3109 0 24.1555C0 15.0001 7.3992 7.57819 16.5266 7.57819C25.654 7.57819 33.0532 15.0001 33.0532 24.1555Z" fill="#111111"/>
<path d="M42.9691 5.92045C42.9691 9.19024 40.3265 11.8409 37.0667 11.8409C33.8069 11.8409 31.1643 9.19024 31.1643 5.92045C31.1643 2.65068 33.8069 0 37.0667 0C40.3265 0 42.9691 2.65068 42.9691 5.92045Z" fill="#111111"/>
</g>
<defs>
<clipPath id="clip0">
<rect width="135" height="40.7328" fill="white"/>
</clipPath>
</defs>
</svg>
