<svg width="135" height="32" viewBox="0 0 135 32" fill="none" xmlns="http://www.w3.org/2000/svg">
<g clip-path="url(#clip0)">
<path d="M33.8583 18.511L27.9023 24.4888C27.3979 24.9952 27.3984 25.8184 27.9033 26.3242L32.4547 30.8821C33.2303 31.6478 34.4985 31.6478 35.2742 30.8821L49.2241 17.1135C49.9997 16.3479 49.9997 15.0962 49.2241 14.3306L35.2742 0.574198C34.4985 -0.191399 33.2303 -0.191399 32.4547 0.574198L27.9033 5.13208C27.3984 5.63791 27.3979 6.46114 27.9023 6.96752L33.8583 12.9453C35.4095 14.4765 35.4095 16.9798 33.8583 18.511Z" fill="#0A6E5C"/>
<path d="M15.9475 18.511L21.9034 24.4888C22.4079 24.9952 22.4076 25.8184 21.9025 26.3242L17.3512 30.8821C16.5754 31.6478 15.3073 31.6478 14.5316 30.8821L0.581756 17.1135C-0.193919 16.3479 -0.193919 15.0962 0.581756 14.3306L14.5316 0.574198C15.3073 -0.191399 16.5754 -0.191399 17.3512 0.574198L21.9025 5.13208C22.4076 5.63791 22.4081 6.46114 21.9034 6.96752L15.9475 12.9453C14.3962 14.4765 14.3962 16.9798 15.9475 18.511Z" fill="#21BF73"/>
<path d="M17.5099 16.8655C16.8818 16.2373 16.8818 15.2189 17.5099 14.5908L23.7655 8.33519C24.3937 7.70704 25.4121 7.70704 26.0403 8.33519L32.2958 14.5908C32.924 15.2189 32.924 16.2373 32.2958 16.8655L26.0403 23.1212C25.4121 23.7493 24.3937 23.7493 23.7655 23.1212L17.5099 16.8655Z" fill="#21BF73"/>
<path d="M76.483 25.1654H72.0377L69.5861 18.7519C69.3884 18.2468 69.0831 17.8951 68.67 17.6966C68.2748 17.4982 67.772 17.3989 67.1612 17.3989H64.4402V25.1654H60.2913V5.89807H68.8316C71.0588 5.89807 72.7471 6.38517 73.8965 7.35935C75.0461 8.33354 75.6209 9.73168 75.6209 11.5538C75.6209 12.8347 75.2796 13.9351 74.5971 14.8552C73.9326 15.7753 72.9716 16.4338 71.7144 16.8306C72.8459 17.0652 73.6632 17.8499 74.1661 19.185L76.483 25.1654ZM68.212 14.1787C69.4154 14.1787 70.2955 13.9802 70.8523 13.5833C71.4091 13.1684 71.6875 12.528 71.6875 11.662C71.6875 10.7961 71.4091 10.1647 70.8523 9.76777C70.2955 9.35284 69.4154 9.14537 68.212 9.14537H64.3863V14.1787H68.212Z" fill="white"/>
<path d="M92.7826 11.4455V25.1654H88.7683V23.1359C88.3552 23.8394 87.7714 24.3896 87.0172 24.7865C86.2629 25.1835 85.4096 25.3819 84.4578 25.3819C83.2724 25.3819 82.2216 25.0932 81.3057 24.5159C80.4075 23.9386 79.6981 23.1178 79.1773 22.0534C78.6743 20.971 78.4229 19.7261 78.4229 18.319C78.4229 16.9118 78.6743 15.658 79.1773 14.5575C79.6981 13.4571 80.4165 12.6091 81.3326 12.0138C82.2486 11.4004 83.2903 11.0937 84.4578 11.0937C85.4096 11.0937 86.2629 11.3012 87.0172 11.7161C87.7714 12.1311 88.3552 12.6903 88.7683 13.3939V11.4455H92.7826ZM85.6431 22.2698C86.649 22.2698 87.4213 21.9272 87.9601 21.2415C88.4989 20.556 88.7683 19.5639 88.7683 18.2649C88.7683 16.9659 88.4989 15.9737 87.9601 15.2882C87.4213 14.5846 86.649 14.2328 85.6431 14.2328C84.6374 14.2328 83.8561 14.5936 83.2993 15.3152C82.7425 16.0368 82.4641 17.0381 82.4641 18.319C82.4641 19.5999 82.7335 20.5831 83.2724 21.2686C83.8292 21.9362 84.6195 22.2698 85.6431 22.2698Z" fill="white"/>
<path d="M112.77 11.0937C114.332 11.0937 115.491 11.5718 116.245 12.528C117.018 13.4661 117.404 14.9093 117.404 16.8577V25.1654H113.336V16.993C113.336 16.0368 113.183 15.3513 112.878 14.9364C112.572 14.5034 112.069 14.2869 111.369 14.2869C110.543 14.2869 109.905 14.5756 109.456 15.1529C109.007 15.7302 108.783 16.542 108.783 17.5883V25.1654H104.714V16.993C104.714 16.0549 104.553 15.3694 104.23 14.9364C103.924 14.5034 103.43 14.2869 102.748 14.2869C101.922 14.2869 101.275 14.5756 100.808 15.1529C100.359 15.7302 100.134 16.542 100.134 17.5883V25.1654H96.0662V15.3693C96.0662 13.9081 95.9946 12.6001 95.8508 11.4455H99.6764L99.9189 13.5022C100.332 12.7264 100.907 12.1311 101.643 11.7161C102.398 11.3012 103.26 11.0937 104.23 11.0937C106.259 11.0937 107.606 11.9416 108.271 13.6375C108.72 12.8617 109.339 12.2483 110.13 11.7973C110.938 11.3283 111.818 11.0937 112.77 11.0937Z" fill="white"/>
<path d="M128.965 11.0937C130.133 11.0937 131.174 11.4004 132.09 12.0138C133.006 12.6091 133.716 13.4571 134.219 14.5575C134.739 15.658 135 16.9118 135 18.319C135 19.7261 134.749 20.971 134.246 22.0534C133.743 23.1178 133.033 23.9386 132.117 24.5159C131.201 25.0932 130.15 25.3819 128.965 25.3819C128.013 25.3819 127.16 25.1835 126.406 24.7865C125.651 24.3896 125.077 23.8394 124.681 23.1358V31.4563H120.613V15.3693C120.613 13.9081 120.541 12.6001 120.398 11.4455H124.223L124.493 13.7186C124.852 12.9068 125.427 12.2664 126.217 11.7973C127.025 11.3283 127.941 11.0937 128.965 11.0937ZM127.807 22.2698C128.812 22.2698 129.585 21.9362 130.124 21.2686C130.662 20.5831 130.932 19.5999 130.932 18.319C130.932 17.0381 130.653 16.0368 130.097 15.3152C129.558 14.5936 128.794 14.2328 127.807 14.2328C126.801 14.2328 126.02 14.5846 125.463 15.2882C124.924 15.9737 124.655 16.9659 124.655 18.2649C124.655 19.5638 124.924 20.556 125.463 21.2415C126.02 21.9271 126.801 22.2698 127.807 22.2698Z" fill="white"/>
</g>
<defs>
<clipPath id="clip0">
<rect width="135" height="31.4892" fill="white"/>
</clipPath>
</defs>
</svg>
