<?xml version="1.0" encoding="UTF-8"?>
<svg width="256px" height="256px" viewBox="0 0 256 256" version="1.1" xmlns="http://www.w3.org/2000/svg" xmlns:xlink="http://www.w3.org/1999/xlink">
    <!-- Generator: Sketch 53.2 (72643) - https://sketchapp.com -->
    <title>scatter_badge_transparent</title>
    <desc>Created with Sketch.</desc>
    <g id="scatter_badge_transparent" stroke="none" stroke-width="1" fill="none" fill-rule="evenodd">
        <g id="Group">
            <g id="Icon" fill="#00A8FF">
                <circle id="Base" cx="128" cy="128" r="127.150442"></circle>
            </g>
            <path d="M118.745763,208.271186 C114.338961,208.271186 110.677981,207.776445 107.762712,206.786947 C104.847443,205.797449 102.542381,204.688546 100.847458,203.460204 C99.1525339,202.231862 97.9661051,201.054718 97.2881356,199.928738 C96.6101661,198.802758 96.2711864,198.069176 96.2711864,197.727969 C96.2711864,196.499627 96.5423702,195.186003 97.0847458,193.787058 C97.6271214,192.388113 98.3050807,191.091549 99.1186441,189.897328 C99.9322075,188.703106 100.813555,187.696563 101.762712,186.877668 C102.711869,186.058774 103.559318,185.649332 104.305085,185.649332 C105.254242,185.649332 106.033895,186.263494 106.644068,187.491836 L107.661017,188.51545 C108.203393,189.06138 108.966097,189.624361 109.949153,190.204412 C110.932208,190.784462 112.152535,191.313324 113.610169,191.791012 C115.067804,192.268701 116.779651,192.507542 118.745763,192.507542 C123.016971,192.507542 126.508461,191.193918 129.220339,188.56663 C131.932217,185.939343 133.288136,182.373792 133.288136,177.869871 C133.288136,174.730775 132.559329,171.932927 131.101695,169.476242 C129.644061,167.019558 127.728825,164.733511 125.355932,162.618033 C122.983039,160.502555 120.271202,158.438289 117.220339,156.425173 C114.169476,154.412056 111.050863,152.31367 107.864407,150.129951 C104.67795,147.946232 101.559337,145.591945 98.5084746,143.067019 C95.4576119,140.542094 92.7457746,137.641885 90.3728814,134.366306 C87.9999881,131.090727 86.0847531,127.388696 84.6271186,123.260102 C83.1694842,119.131507 82.440678,114.405873 82.440678,109.083058 C82.440678,104.510895 83.2203312,99.9046814 84.779661,95.2642779 C86.3389908,90.6238744 88.4915117,86.2053212 91.2372881,82.0084857 C93.9830646,77.8116502 97.2203203,73.8878384 100.949153,70.2369327 C104.677985,66.586027 108.711843,63.4128575 113.050847,60.717329 C117.389852,58.0218005 121.915231,55.9063542 126.627119,54.3709265 C131.339007,52.8354989 136.067773,52.0677966 140.813559,52.0677966 C144.881376,52.0677966 148.542357,52.7160786 151.79661,54.0126619 C155.050864,55.3092452 157.796599,57.1346707 160.033898,59.488993 C162.271198,61.8433154 163.999994,64.6752839 165.220339,67.9849835 C166.440684,71.294683 167.050847,74.9967141 167.050847,79.0911878 C167.050847,82.9809378 166.372888,86.8023892 165.016949,90.5556568 C163.66101,94.3089243 161.864418,97.8574149 159.627119,101.201235 C157.389819,104.545055 154.864421,107.632925 152.050847,110.464935 C149.237274,113.296946 146.355947,115.753594 143.40678,117.834951 C140.457612,119.916309 137.593234,121.537014 134.813559,122.697114 C132.033884,123.857215 129.593231,124.437257 127.491525,124.437257 C125.661008,124.437257 124.016956,124.010756 122.559322,123.15774 C121.101688,122.304725 119.881361,121.247002 118.898305,119.984539 C117.915249,118.722076 117.152545,117.391392 116.610169,115.992447 C116.067794,114.593502 115.79661,113.348118 115.79661,112.256259 C115.79661,111.369123 115.915253,110.789081 116.152542,110.516116 C116.389832,110.243151 116.728811,110.123731 117.169492,110.157851 C117.610172,110.191972 118.169488,110.294332 118.847458,110.464935 C119.525427,110.635539 120.30508,110.720839 121.186441,110.720839 C124.033913,110.720839 127.186423,109.731356 130.644068,107.75236 C134.101712,105.773365 137.355917,103.248477 140.40678,100.177622 C143.457642,97.1067665 146.016939,93.7288764 148.084746,90.0438501 C150.152553,86.3588238 151.186441,82.7762131 151.186441,79.2959104 C151.186441,75.7473666 150.322043,72.9495182 148.59322,70.9022814 C146.864398,68.8550445 143.932224,67.8314415 139.79661,67.8314415 C137.220326,67.8314415 134.423744,68.3261829 131.40678,69.3156807 C128.389815,70.3051785 125.355947,71.6870427 122.305085,73.4613146 C119.254222,75.2355865 116.305099,77.385153 113.457627,79.9100784 C110.610155,82.4350039 108.101706,85.2157922 105.932203,88.2525268 C103.762701,91.2892615 102.016956,94.5647913 100.694915,98.0792145 C99.3728747,101.593638 98.7118644,105.261549 98.7118644,109.083058 C98.7118644,113.10929 99.4406707,116.708961 100.898305,119.882178 C102.355939,123.055395 104.288124,125.938544 106.694915,128.53171 C109.101707,131.124877 111.830493,133.513284 114.881356,135.697003 C117.932219,137.880723 121.050832,140.047349 124.237288,142.196948 C127.423745,144.346547 130.542358,146.564353 133.59322,148.850434 C136.644083,151.136515 139.372869,153.661403 141.779661,156.425173 C144.186453,159.188942 146.118637,162.259752 147.576271,165.637692 C149.033906,169.015633 149.762712,172.888265 149.762712,177.255703 C149.762712,181.48666 148.96611,185.495772 147.372881,189.28316 C145.779653,193.070548 143.593234,196.363138 140.813559,199.161028 C138.033884,201.958918 134.745782,204.176725 130.949153,205.814515 C127.152523,207.452304 123.084767,208.271186 118.745763,208.271186 Z" id="Scatter" fill="#FFFFFF"></path>
        </g>
    </g>
</svg>