<svg width="12" height="12" viewBox="0 0 12 12" fill="none" xmlns="http://www.w3.org/2000/svg">
<path d="M6.3 8.87505H7.7C7.85 8.87505 8 8.72505 8 8.57505V1.175C8 1.025 7.85 0.875 7.7 0.875H6.3C6.15 0.875 6 1.025 6 1.175V8.57505C6 8.72505 6.15 8.87505 6.3 8.87505ZM9.5 8.87505H10.825C10.975 8.87505 11.125 8.72505 11.125 8.57505V3.875C11.125 3.725 10.975 3.575 10.825 3.575H9.5C9.35 3.575 9.2 3.725 9.2 3.875V8.57505C9.2 8.72505 9.35 8.87505 9.5 8.87505ZM3.3 8.87505H4.7C4.85 8.87505 5 8.72505 5 8.57505V5.875C5 5.725 4.85 5.575 4.7 5.575H3.3C3.15 5.575 3 5.725 3 5.875V8.57505C3 8.72505 3.15 8.87505 3.3 8.87505ZM11.625 10.375H1.5V0.375C1.5 0.167812 1.33219 0 1.125 0C0.917812 0 0.375 0 0.375 0C0.167812 0 0 0.167812 0 0.375C0 0.582188 0 11.125 0 11.125C0 11.5392 0.335859 11.875 0.75 11.875H11.625C11.8322 11.875 12 11.7072 12 11.5V10.75C12 10.5428 11.8322 10.375 11.625 10.375Z" fill="#6B7C93"/>
</svg>
