<svg xmlns="http://www.w3.org/2000/svg" width="12" height="12" fill="none" viewBox="0 0 12 12">
    <path fill="#6B7C93" d="M5.333.96c0-.53-.43-.96-.96-.96H.96C.43 0 0 .43 0 .96v3.412c0 .531.43.961.96.961h3.412c.531 0 .961-.43.961-.96V.96zM12 .96c0-.53-.43-.96-.961-.96H7.627c-.53 0-.96.43-.96.96v3.412c0 .531.43.961.96.961h3.412c.53 0 .96-.43.96-.96V.96zM5.333 7.628c0-.531-.43-.961-.96-.961H.96c-.53 0-.961.43-.961.96v3.412c0 .53.43.961.96.961h3.412c.531 0 .961-.43.961-.96V7.627zM12 7.628c0-.531-.43-.961-.961-.961H7.627c-.53 0-.96.43-.96.96v3.412c0 .53.43.961.96.961h3.412c.53 0 .96-.43.96-.96V7.627z"/>
</svg>
