<svg xmlns="http://www.w3.org/2000/svg" width="14" height="12" fill="none" viewBox="0 0 14 12">
    <path fill="#6B7C93" d="M11.864 4.283H8.19c.306-.734.664-1.916.594-2.687C8.698.652 8.3.076 7.793.004c-.378-.053-.716.48-.905 1.153-.26.928-.816 1.878-.816 1.878L4.005 5.016v5.87s.665.568 1.854.862c.718.177 5.584.583 6.173-.275.295-.43.23-.807.23-1.027.152-.147.404-.404.503-.766.148-.544.048-.985-.028-1.205.152-.22.361-.414.392-.945.03-.531-.104-.778-.18-.998.077-.292.23-.552.23-1.14 0-.75-.703-1.11-1.315-1.11zM2.366 4.343H.864c-.477 0-.864.387-.864.865v5.26c0 .477.387.864.864.864h1.502c.478 0 .865-.387.865-.865v-5.26c0-.476-.387-.864-.865-.864zm-.75 6.085c-.38 0-.689-.308-.689-.688 0-.379.308-.687.688-.687.38 0 .687.308.687.687 0 .38-.307.688-.687.688z"/>
</svg>
