<svg width="53" height="52" viewBox="0 0 53 52" fill="none" xmlns="http://www.w3.org/2000/svg">
<path d="M26.5 0C12.14 0 0.5 11.64 0.5 26C0.5 40.36 12.14 52 26.5 52C40.86 52 52.5 40.36 52.5 26C52.48 11.65 40.85 0.02 26.5 0ZM50.14 24.98H45.5V17.93C45.5 17.14 44.86 16.51 44.08 16.51H39.83C39.78 16.27 39.72 16.03 39.67 15.79H47.85C49.22 18.66 50 21.79 50.14 24.98ZM25.48 16.5H15.28C15.33 16.26 15.39 16.02 15.45 15.78H25.47V16.5H25.48ZM25.55 18.4V33.6H9.4V18.4H25.55ZM27.52 35.5H37.71C37.66 35.74 37.6 35.98 37.54 36.22H27.52V35.5ZM27.45 33.6V18.4H43.6V33.6H27.45ZM46.73 13.73H39.11C37.76 9.25 35.69 5.62 33.15 3.29C38.82 4.97 43.66 8.69 46.73 13.73ZM27.52 2.59C31.51 3.22 34.97 7.53 36.96 13.74H27.52V2.59ZM27.52 15.78H37.54C37.6 16.02 37.66 16.26 37.71 16.5H27.52V15.78ZM25.48 2.59V13.74H16.04C18.03 7.53 21.49 3.22 25.48 2.59ZM19.84 3.3C17.3 5.63 15.23 9.26 13.88 13.74H6.27C9.34 8.69 14.18 4.97 19.84 3.3ZM5.16 15.78H13.34C13.28 16.02 13.23 16.26 13.18 16.5H8.92C8.14 16.5 7.5 17.14 7.5 17.92V24.97H2.86C3 21.79 3.78 18.66 5.16 15.78ZM2.86 27.02H7.5V34.07C7.5 34.86 8.14 35.49 8.92 35.49H13.18C13.23 35.73 13.29 35.97 13.34 36.21H5.16C3.78 33.34 3 30.21 2.86 27.02ZM6.27 38.27H13.89C15.24 42.75 17.31 46.38 19.85 48.71C14.18 47.03 9.34 43.31 6.27 38.27ZM25.48 49.41C21.49 48.78 18.03 44.47 16.04 38.26H25.48V49.41ZM25.48 36.22H15.46C15.4 35.98 15.34 35.74 15.29 35.5H25.48V36.22ZM27.52 49.41V38.27H36.96C34.97 44.47 31.51 48.78 27.52 49.41ZM33.16 48.7C35.7 46.37 37.77 42.74 39.12 38.26H46.74C43.66 43.31 38.82 47.03 33.16 48.7ZM39.66 36.22C39.72 35.98 39.77 35.74 39.82 35.5H44.07C44.86 35.5 45.49 34.86 45.49 34.08V27.03H50.13C50 30.22 49.22 33.35 47.83 36.23H39.66V36.22Z" fill="#156FFF"/>
<path d="M40.9901 22.2001H36.9501V21.01C36.9501 20.62 36.6301 20.3 36.2401 20.3H35.7701C35.3801 20.3 35.0601 20.62 35.0601 21.01V22.2001H31.0201C30.6301 22.2001 30.3101 22.52 30.3101 22.91V23.39C30.3101 23.78 30.6301 24.1 31.0201 24.1H38.0501C37.6401 25.12 36.9501 26.18 36.0601 27.1901C35.5901 26.6601 35.1501 26.1001 34.7701 25.5301C34.5601 25.2201 34.1401 25.12 33.8101 25.32L33.4001 25.56C33.0501 25.77 32.9501 26.23 33.1701 26.57C33.5901 27.19 34.1001 27.8601 34.7001 28.5301C34.1101 29.0501 33.4601 29.54 32.7901 29.97C32.4701 30.18 32.3601 30.6 32.5501 30.93L32.7901 31.34C32.9901 31.6901 33.4401 31.8101 33.7901 31.59C34.5901 31.08 35.3501 30.51 36.0501 29.89C36.7101 30.5 37.4401 31.08 38.2201 31.58C38.5601 31.8 39.0301 31.6901 39.2301 31.34L39.4701 30.93C39.6601 30.6 39.5601 30.19 39.2401 29.98C38.6201 29.58 38.0001 29.09 37.4001 28.55C38.6701 27.13 39.6201 25.5801 40.0701 24.1101H41.0001C41.3901 24.1101 41.7101 23.79 41.7101 23.4V22.92C41.7001 22.52 41.3801 22.2001 40.9901 22.2001Z" fill="#156FFF"/>
<path d="M12.9098 31.7001H13.5198C13.6698 31.7001 13.8198 31.65 13.9398 31.56C14.0598 31.47 14.1498 31.35 14.1998 31.21L14.9998 28.7801H18.9998L19.7998 31.21C19.8498 31.35 19.9398 31.48 20.0598 31.56C20.1798 31.65 20.3298 31.7001 20.4798 31.7001H21.0898C21.5798 31.7001 21.9298 31.21 21.7598 30.75L18.2498 20.7701C18.1998 20.6301 18.1098 20.51 17.9898 20.43C17.8698 20.34 17.7298 20.3 17.5798 20.3H16.4198C16.2698 20.3 16.1298 20.35 16.0098 20.43C15.8898 20.52 15.7998 20.6401 15.7498 20.7701L12.2398 30.74C12.0698 31.21 12.4198 31.7001 12.9098 31.7001ZM16.5098 24.0401C16.7298 23.4001 16.9898 22.2701 16.9898 22.2701H17.0198C17.0198 22.2701 17.2598 23.3901 17.4698 24.0401L18.4798 27.09H15.4998L16.5098 24.0401Z" fill="#156FFF"/>
</svg>
